<?xml version="1.0" encoding="UTF-8"?>
<!DOCTYPE svg PUBLIC "-//W3C//DTD SVG 1.1//EN" "http://www.w3.org/Graphics/SVG/1.1/DTD/svg11.dtd">
<!-- Creator: CorelDRAW 2019 (64-Bit) -->
<svg xmlns="http://www.w3.org/2000/svg" xml:space="preserve" width="210mm" height="210mm" version="1.1" shape-rendering="geometricPrecision" text-rendering="geometricPrecision" image-rendering="optimizeQuality" fill-rule="evenodd" clip-rule="evenodd"
viewBox="0 0 21000 21000"
 xmlns:xlink="http://www.w3.org/1999/xlink">
 <defs>
    <clipPath id="id0">
     <path d="M7858.88 23189.4l163.93 -2564.31c-468.06,-234.14 -892.76,-161.31 -1444.84,-484.18 -196.81,-115.12 -454.1,-171.41 -669.47,-300.05 -197.22,-117.81 -407.87,-269.69 -496.55,-403.94 109.06,25.75 294.65,192.17 609.81,253.42l2121.73 558.25c504.62,139.7 497.19,27.33 621.38,264.28l317.66 599.25c196.24,406.84 366.52,778.9 589.24,1202.03 72.74,138.2 95.05,224.12 144.26,336.94l566.26 1270.73c47.72,107.57 114.29,233.05 143.25,297.62l511.67 1282.85c141.21,434.96 568.74,1739.75 613.48,2124.5 859.08,114.96 1465.67,307.85 2384.08,13.95 178.43,-57.09 263.11,-42.51 456.13,-82.7l809.54 -228.56c-47.91,-616.41 -172.42,-1112.6 -240.63,-1748.68 -120.94,-1127.74 -213.81,-2304.27 -381.39,-3412.93 -41.52,-274.67 -97.04,-538.87 -154.81,-808.01 -88.58,-412.71 -190.52,-432.65 -450.04,-456.04l-70.55 -217.45c-364.83,19.5 -1248.02,-14.03 -1476.96,-380.89 -131.41,-210.58 -221.99,-516.52 -408.38,-877.43 -43.03,-83.33 -71.33,-160.04 -100.07,-224.24 -108.47,-242.36 -30.8,-1225.44 9.67,-1494.68 -924.84,228.29 -3451.15,152.59 -4513.06,73.36l-112.42 -0.7c64.08,12.29 32.55,2.5 72.74,21.68l67.53 80.41 -102.88 30.9c-71.46,5.75 -66.99,-2.32 -124.17,-13.99l-14.78 1050.45c-4.93,-97.21 -143.99,-788.14 -207.78,-889.87 -50.55,-80.61 -82.36,-57.47 -98.2,-135.73l10.95 -37.15c32.64,-46.83 -19.16,148.34 53.91,-41.98 -79.92,-160.77 20.71,-81.12 -165.08,-122.61l-679.75 -111.44c-288.49,-36.7 -591.51,-137.76 -887.33,-187.84 -359.06,-60.78 -545.15,-96.18 -867.69,-194.09 -357.76,-108.61 -586.3,-107.41 -710.52,-195.19 -61.24,636.3 -91.25,1166.99 -96.6,1820.13l487.17 7437.34c16.32,248.36 -24.02,387.51 21.37,668.93l239.44 125.74c338.1,200.94 1694.17,254.51 2089.36,207.46 232.4,-27.68 1000.68,-33.4 1131.94,-177.79 121.23,-133.36 204.76,-3512.35 237.45,-3927.75z"/>
    </clipPath>
    <clipPath id="id1">
     <path d="M5031.91 16935.43c938.81,255.85 3720.23,432.81 4526.11,425.08 813.47,-7.78 1655.83,-30.45 2460.74,-23.96l597.95 -5827.87c-10.46,6.24 -24.27,4.39 -30.02,21.05l-218.86 172.14c-118.23,128.81 -218.57,177.66 -338.02,340.24l-1660.41 -234.73 -135.03 -203.21c-79.59,-100.61 -256.85,-271.41 -295.05,-398.44 -46.08,-153.25 40.93,-813.1 83.67,-945.12 54.65,-4.03 361.18,79.32 474.24,101.49l501.46 110.36c8.38,2.81 21.39,6.99 31.3,12.37l-68.54 446.95 642.92 74.05 60.85 -169.5c36.38,-166.83 61.85,-402.07 27.39,-556.22 -268.72,-154.8 -657.89,-128.26 -968.16,-181.08 -187.05,-31.85 -387.32,-330.94 -503.25,-502.48 -182.38,-269.86 -43.21,-717.87 -3.36,-1078.58 15.44,-139.69 24.53,-386.4 58.94,-533.42 31.5,-134.54 157.26,-240.49 247.9,-320.91 323.58,-287.07 321.75,-309.78 773.86,-244.95 302.42,43.37 674.42,101.27 976.35,158.99 271.79,51.96 278.75,257.14 441.51,419.9 224.02,224 213.1,235.78 165.5,602.51 -24.05,185.3 -30.87,380.59 -66.51,557.08 -140.77,33.93 -715.26,-98.81 -898.05,-115.73l31.03 -488.33c-159.56,-4.58 -625.87,-157.63 -723.42,-73.57 -103.64,120.8 -84.22,504.78 -108.43,663.11 451.37,101.29 986.07,36.37 1310.16,431.68 94.15,114.86 324.46,430.32 335.61,541.26 15.57,154.72 -76.64,670.49 -99.65,892.21 286.35,-201.5 189.67,-188.47 625.13,-231.66 566.69,-56.2 1722.38,-200.89 2180.97,-165.89 -61.01,-192.72 -174.16,-293.33 -274.17,-453.07 -402.35,-642.65 -464.06,-836.78 -492.81,-1680.8l40.93 97.3c63.34,195.62 85.6,419.5 169.81,602.42l148.67 216.86c-178.69,-1241.81 -24.45,-1955.27 354.2,-3064.3 86.82,-254.28 220.07,-465.86 363.61,-693.08l57.62 -89.71c211.52,-328.93 796.2,-967.92 1189.36,-1000.97 -128.88,82.46 -353.91,262.08 -456.27,398.49 -69.75,92.93 -74.58,91.23 -164.7,165.43 -36.18,29.8 -10.89,-6.54 -73.35,68.73 -565.65,681.59 -922.43,1575.82 -1064.43,2475.43 -180.77,1145.27 72.16,2033.65 658.04,2959.69 100.97,159.58 373.69,677.79 476.65,753.75 107.68,-89.75 87.9,-97.41 158.64,-191.81 96.41,-128.63 113.92,-85.42 210.58,-185.4 488.43,-505.19 654.79,-677.25 1323.92,-1023.6 833.65,-431.51 1531.54,-566.29 2547.02,-460.73 -37.23,-238.84 -390.4,-841.38 -496.67,-1074.83 -224.26,-492.67 -543.94,-1013.27 -810.84,-1490.95 -230.66,-412.82 -450.94,-816.23 -743.77,-1160.89 -47.4,-55.78 -34.49,-46.21 -77.79,-104.7 -191.64,-258.91 -383.4,-518.65 -622.96,-725.53 -85.79,-74.09 -146.83,-95.99 -224.76,-177.31 -7.25,-7.57 -26,-30.7 -33.24,-38.21 -26.21,-27.21 -6.16,-9.81 -55.07,-52.95 -245.05,-216.14 -490.14,-351.88 -784.31,-554.48 -509.46,-350.9 -1220.91,-529.56 -1762.68,-857.76 -173.3,-105 -92.73,-70.72 -180.29,-203.37l-744.07 802.07c-277.47,294.42 -1183.95,858.79 -1594.45,1072.75 -1698.21,885.1 -3838.52,1734.41 -5744.56,837.11 -410.24,-193.12 -918.37,-549.19 -1150.52,-978.23 -83.99,-155.2 -93.31,-235.8 -157.99,-387.61 -76.54,-179.61 -559.25,-393.73 -738.63,-576.41l-256.13 -281.91c-44.9,-69.39 -66.59,-103.37 -116.12,-174.96 -73.69,-106.51 -124.61,-356.85 -254.62,-385.9l-1230.84 -162.68 -1488 -9.3 305.05 605.07c93.58,195.61 162.19,454.53 201.84,679.76 201.94,1147.41 152.19,2703.15 -619.4,3646.21 -109.47,133.79 -306.87,303.84 -535.83,366.02l159.69 94.27c57.74,20.66 127.89,35.4 188.45,53.13 407.06,119.12 827.73,200.22 1252.47,220.18 30.32,-954.15 211.62,-1944.79 395.93,-2860.55 57.32,-284.8 142.53,-547.99 203.84,-855.94 56.77,241.26 -17.65,745.8 2.42,1056 86.83,-117.65 76.31,-203.99 128.48,-320.45 27.89,-62.23 49.93,-80.89 82.14,-137.6l421.43 -767.95c-42.99,450.75 -502.05,1772.43 -621.83,2591.31 -216.27,1478.44 -199.43,3083.14 -117.1,4594.16 13.7,251.51 15.57,469.33 52.91,720.45l114 1496.44c9.94,253.7 40.77,525.75 53.67,752.95 11.52,202.96 68.95,1432.22 125.59,1524.72 309.51,275.59 1438.38,542.31 1864.41,658.42zm4369.78 -7214.03c-305.74,357.34 -664.78,217.7 -1374.09,114.64l-85.24 793.59 266.28 2.05c-24.84,338.64 -3.25,690.94 -113.53,974.67 -140.91,-127.97 -1152.04,-157.97 -1447.43,-217.75l97.71 -914.84 246.26 26.8 251.82 -2498.47 -246.12 -12.72c-0.49,-226.9 25.51,-874.54 94.5,-1021.04 249.15,-26.87 1403.02,121.74 1758.25,166.97 724.14,92.21 444.77,-88.88 872.9,407.54l102.76 114.65c261.8,347.13 114.46,550.6 41.17,1261.67 -46.98,455.84 -13.96,376.75 -201.67,556.98l-263.57 245.26zm-3069.11 268.29c-18.29,220.88 -20.58,777.74 -166.85,897.46l-265.07 242.1c-134.68,115.59 -146.58,80.65 -258.48,244.44 -441.31,-50.22 -910.23,-4.46 -1339.61,-37.72 -262.11,-20.31 -128.1,-25.2 -386.65,-292 -51.76,-53.41 -28.82,-20.84 -87.58,-90.76l-79.34 -103.47c-167.7,-239.14 4.52,-1032.14 12.64,-1636.61 5.55,-413.38 94.89,-836.09 122.24,-1269.4 -97.39,-39.82 -125.58,-17.71 -248.06,-17.71 38.95,-280.36 26.72,-906.45 145.25,-1092.46l1430.4 26.11 -83.13 1048.92c-106.67,58.8 -104.54,38.83 -241.07,56.79 -69.58,145.38 -221.77,2048.61 -224.82,2369.78 199.96,-6.75 456.28,48.51 650.71,-11.43 35.81,-192.75 30.37,-432.8 41.57,-598.18 14.49,-213.83 41.07,-385.94 57.95,-584.91 31.65,-373.07 49.92,-777.05 114.84,-1159.53 -59.45,-50.86 -18.66,-27.29 -127.96,-62.68 -3.21,-1.04 -84.56,-10.54 -81.51,-10.88l105.12 -1017.54c111.52,-32 1263.77,7.58 1424.98,38.26 34.09,153.95 -21.12,923.88 -66.96,1067.44l-255.02 24.06c-90.41,617.95 -139.85,1321.11 -193.59,1969.92z"/>
    </clipPath>
 </defs>
 <g id="Layer_x0020_1">
  <metadata id="CorelCorpID_0Corel-Layer"/>
  <g id="_2328896184784">
   <path fill="#261403" d="M7530.63 27663.74c70.86,661.96 247.07,1539.64 345.35,2377.38 122.36,1042.9 -145.37,1236.15 -1083.07,1580.98 -627.42,230.72 -1400.2,436.25 -2052.95,589.88 -566.58,133.34 -1904.18,504.7 -2079.66,-142.75 -322.79,-316.96 -30.02,-1270.01 108.7,-1572.07 142.23,-309.71 499.82,-702.06 789.96,-880.05 5.78,-3.54 67.6,-41.41 68.29,-41.9l64.73 -55.43c4.95,-4.43 14.21,-13.57 20.85,-20.85 -947.02,117.59 -1491.49,945.72 -1592.62,1808.36 -78.16,666.79 50.18,733.2 66.52,916.84 26.48,297.75 -1009.76,-113.64 -1098.79,-176.25 -329.93,-232.02 -303.02,-751.37 -233.76,-1152.78 63.22,-366.42 281.37,-793.96 454.27,-1011.38 205.96,-258.99 528.23,-548.37 838.66,-622.62 -229.98,-128.41 -1552.01,198.7 -1721.65,1633.72 -61.85,523.24 62.79,653.15 114.63,1086.32 -298.18,-83.66 -516.35,-293.91 -572.52,-610.87 -90.12,-508.57 63.92,-1207.83 375.1,-1612.95 131.65,-171.39 274.81,-306.64 458.57,-411.23 758.17,-431.48 1390.25,-524.61 2301.39,-547.49 363.86,-9.13 713.45,-40.03 1093.16,-40.72l953.54 -6.96c136.12,-40.48 75.96,-1.99 145.93,-99.34 -180.9,-105.29 -660.34,-219.76 -917.01,-238l114.46 -736.2c2076.98,427.25 2607.43,-44.48 3037.92,-13.64zm4610.9 543.68c1101.23,88.81 1166.38,144.88 2247.22,-83.41 241.19,-50.96 452.27,-148.35 680.71,-185.67 36.73,217.48 129.19,477.57 190.64,683.46 77.41,259.36 110.86,494.24 162.95,724.9 1037.59,282.14 1178.22,208.31 2187.63,672.69 1237.3,569.24 1364.69,2112.54 764.94,2547.2 -157.81,114.38 -364.27,270.17 -654.53,290.59 387.34,-1040.85 -296.71,-2789.37 -1805.18,-2837.36 176.74,162.89 456.07,90.62 949.4,677.44 553.76,658.7 1258.19,2914.51 -1216.55,2332.17 70.28,-349 205.2,-518.17 138.63,-967.07 -89.75,-605.28 -325.78,-1109.3 -762.7,-1474.4 -172.91,-144.49 -503.38,-327.95 -764.59,-323.39 526.03,480.54 1065.24,847.53 1108.68,1872.17 54.7,1289.98 -1018.24,932.2 -1734.39,597.2 -360.55,-168.65 -632.67,-334.39 -897.3,-578.04 -987.76,-909.42 -263.21,-1697.46 -595.56,-3948.48zm886.2 -8947.73c152.89,-86.06 124.95,-567.63 234.45,-734.79l210.07 -10.62c2.46,476.82 -206.68,833.16 -598.12,816.41 -136.08,-237.23 -68.92,-600.18 -16.92,-863.32l315.2 68.87 -144.68 723.45zm-5513.51 -1477.2c1061.91,79.23 3588.22,154.93 4513.06,-73.36 -40.47,269.24 -118.14,1252.32 -9.67,1494.68 28.74,64.2 57.04,140.91 100.07,224.24 186.39,360.91 276.97,666.85 408.38,877.43 228.94,366.86 1112.13,400.39 1476.96,380.89l70.55 217.45c259.52,23.39 361.46,43.33 450.04,456.04 57.77,269.14 113.29,533.34 154.81,808.01 167.58,1108.66 260.45,2285.19 381.39,3412.93 68.21,636.08 192.72,1132.27 240.63,1748.68l-809.54 228.56c-193.02,40.19 -277.7,25.61 -456.13,82.7 -918.41,293.9 -1525,101.01 -2384.08,-13.95 -44.74,-384.75 -472.27,-1689.54 -613.48,-2124.5l-511.67 -1282.85c-28.96,-64.57 -95.53,-190.05 -143.25,-297.62l-566.26 -1270.73c-49.21,-112.82 -71.52,-198.74 -144.26,-336.94 -222.72,-423.13 -393,-795.19 -589.24,-1202.03l-317.66 -599.25c-124.19,-236.95 -116.76,-124.58 -621.38,-264.28l-2121.73 -558.25c-315.16,-61.25 -500.75,-227.67 -609.81,-253.42 88.68,134.25 299.33,286.13 496.55,403.94 215.37,128.64 472.66,184.93 669.47,300.05 552.08,322.87 976.78,250.04 1444.84,484.18l-163.93 2564.31c-32.69,415.4 -116.22,3794.39 -237.45,3927.75 -131.26,144.39 -899.54,150.11 -1131.94,177.79 -395.19,47.05 -1751.26,-6.52 -2089.36,-207.46l-239.44 -125.74c-45.39,-281.42 -5.05,-420.57 -21.37,-668.93l-487.17 -7437.34c5.35,-653.14 35.36,-1183.83 96.6,-1820.13 124.22,87.78 352.76,86.58 710.52,195.19 322.54,97.91 508.63,133.31 867.69,194.09 295.82,50.08 598.84,151.14 887.33,187.84l679.75 111.44c185.79,41.49 85.16,-38.16 165.08,122.61 -73.07,190.32 -21.27,-4.85 -53.91,41.98l-10.95 37.15c15.84,78.26 47.65,55.12 98.2,135.73 63.79,101.73 202.85,792.66 207.78,889.87l14.78 -1050.45c57.18,11.67 52.71,19.74 124.17,13.99l102.88 -30.9 -67.53 -80.41c-40.19,-19.18 -8.66,-9.39 -72.74,-21.68l112.42 0.7zm17175.19 -385.58c-112.56,269.37 -212.52,390.66 -304.47,724.02 -437.82,1587.31 827.16,3680.54 -88.53,5737.25 -144.6,324.77 -284.34,479.54 -389.9,668.99 -242.59,-231.91 -470.47,-253.6 -714.11,-11.45 -306.79,304.94 -143.61,527.98 -127.1,841.95 -830.14,628.09 -1653.58,767.8 -2677.96,746.46 -380.07,-7.91 -685.6,-125.26 -995.32,-150.89 -109.32,-5.36 -570.43,-156.9 -631.21,-257.84 -275.3,-80.16 -476.65,-219.71 -705.67,-370.19 -129.94,-85.37 -208.33,-127.27 -327.01,-215.43 -63.68,-47.31 -103.94,-70.77 -146.47,-106.44l-432.97 -363.34c-134.02,-98.79 -138.08,-164.13 -268.25,-273.57 -338.31,-284.45 -562.58,-648.81 -752.35,-847.18 -544.71,-569.4 -1133.02,-1837.57 -1173.96,-2644.4 340.67,7.66 558.83,-8.76 891.41,-32.17 97.11,195.37 254.27,386.28 389.13,580.9l400.1 584.42c222.91,337.99 288.34,355.05 427.45,556.36 67.73,98 136.33,167.91 209.43,264.46 43.77,57.81 65.93,89.6 113.71,143.9 13.94,15.83 51.34,55.42 51.43,55.52 54.74,65.25 23.35,2.33 59.36,81.83l201.84 165.82c332,289.6 210.26,268.35 359.39,365.78 9.08,5.93 38.28,19.8 46.91,26.1 49.42,36.14 26.61,18.03 56,52.56 58.44,68.64 -24.25,16.93 71.36,105.41 111.52,38.99 368.68,240.17 507.21,327.71 983.18,621.34 2404.87,668.44 3243.66,-20.9 708.64,-582.38 352.53,-337.81 793.47,-928.6 82.91,-148.37 217.06,-449.53 205.38,-584.49 452.14,-1387.01 -524.63,-3009.51 -295.53,-4921.96 59.34,-495.34 210.03,-1067.31 454.12,-1357.43 118.17,58.15 140.99,110.78 242.14,242.81l72.08 93.29c-28.74,-181.04 -10.2,-118.41 -121.53,-228.54l-136.56 -130.51c-5.31,-4.77 -19.63,-5.95 -23.55,-20.09 -4,-14.46 -16.49,-13.07 -24.43,-20.02l181.22 -247.77c20.63,-16.75 31.8,-16.85 66.69,-40.5 93.66,-63.53 124.59,-117.17 164.39,-202.04 45.26,-96.51 11.99,-88.32 130.87,-157.78 1.13,-0.66 63.39,-31.68 72.81,-37.11l109.28 -71.6c348.99,-222 880.65,-337.53 1231.63,-19.22 32.12,29.13 23.76,21.94 56.74,51.87 528.55,479.63 100.98,994.67 -14.32,1204.81 -7.06,12.88 -32.41,58.19 -40.04,70.26l-29.93 43.66c-6.2,8.93 -24.81,33.93 -31.19,42.7l-194.69 277.46c-4.52,6.19 -42.57,52.77 -47.53,58.95 -6.55,8.14 -25.7,31.01 -32.26,39.27l-82.37 106.94zm-10227.78 -5787.23c260.13,20.79 1215.6,-162.84 1511.92,-249.52 20.65,183.81 189.21,498.27 271.99,617.17 219.28,50.06 240.49,15.78 451.89,-30.84 46.55,571.69 -436.78,2214.81 -660.58,2708.45 -57.16,126.07 -112.42,242.12 -173.36,372.93l-80.85 181.24c-4.37,6.61 -10.59,15.27 -15.36,21.45 -288.38,373.4 -693.99,-309.55 -1733.44,368.13 0.24,-164.64 58.62,-310.3 56.98,-494.82 -3.18,-356.23 249.22,-2401.2 297.44,-3000.79l61.53 -458.02c2.09,-20.02 6.85,-24.03 11.84,-35.38zm-1863.35 5279.35c160.06,-878.84 452.91,-4998.16 552.66,-5365.46 157.72,-10.22 263.43,216.61 605.34,176.15 -15.48,449.11 -359.36,3115.9 -344.38,3268.84 8.87,90.62 10.31,64.91 24.74,99.01 95.76,-486.2 140.98,-1159.7 197.76,-1687.76 31.02,-288.47 110.39,-1443.31 189.13,-1608.66l344.36 -53.15c-86.54,458.63 -305.3,2537.09 -340.74,3065.01 -44.25,659.06 -10.88,1041.75 -310.18,1389.15 -247.15,286.87 -508.56,535.98 -918.69,716.87zm4450.13 -4815.53c17.95,-729.06 -418.96,-452.86 237.49,-1026.44 229.48,-200.51 567.47,-450.04 859.93,-617.2 505.49,-288.94 1694.77,-627.67 2343.83,-468.2 77.18,93.07 461.76,1308.75 521.86,1541.96 167.31,649.24 250.13,1145.94 192.76,1827.26 -79.21,940.82 -806.9,2139.24 -1438.53,2697.1 -406.34,358.89 -1483.16,1408.23 -1779.43,1777.45 -90.31,112.53 -359.08,1578.09 -988.04,2091.87 -353.08,288.43 -543.6,496.61 -1023.43,473.69 47.48,-196.59 380.68,-207.5 442.38,-742.76 -130.15,48.27 -311.48,245.06 -426.32,361.63 -140.35,142.48 -279.94,221.81 -474.89,320.88 -344.61,175.11 -744.93,451.85 -1084.47,146.68 233.94,-134.17 599.7,-403.58 747.99,-580.41 182.21,-217.3 385.99,-619.2 365.7,-1018.5 -80.38,90.91 -149.09,229.84 -239.38,366.44l-271.62 348.82c-947.09,1047.07 -2175.39,737.92 -2404.53,11.32 525.36,112.94 920.71,66.15 1236.86,-387.48 282.13,-404.82 398.49,-748.32 679.47,-1150.26 115.35,-164.99 406.5,-567.38 449.04,-794.16 -290.35,291.35 -1203.84,841.64 -1532.25,917.36 -725.75,167.35 -900.69,-651.35 -851.3,-824.45 49.02,-171.8 663.88,-385.2 872.52,-611.34 138.26,-149.86 47.58,-135.52 291.08,-325.27 78.49,-61.16 92.59,-87.26 163.92,-163.1 1046.88,-1113.21 1305.73,-170.91 2182.84,-514.86 -44.94,-43.34 6.98,-54.76 -230.27,-55.64 59.39,-92.03 305.48,-370.67 383.77,-540.53 438.4,-951.06 482.25,-1675.33 981.16,-2736.83 74.54,-158.61 266.63,-405.64 361,-550.46 74.98,-115.06 328.77,-381.72 436.41,-472.5 374.34,-315.72 241.64,-178.05 539.82,-397.22 -836.68,102.67 -1316.66,897.01 -1545.37,1095.15zm-5257.22 -901.64c32.03,-155.45 115.58,-904.92 61.26,-988.1 -70.22,-107.53 -677.4,-201.49 -851.7,-220.85 -311.6,-34.63 -301.44,29.92 -638.8,-442.66 -160.48,-224.8 -61.36,-362.18 0.05,-874.71 72.26,-603.03 -16.78,-620.5 263.36,-841.6 47.95,-37.84 265.76,-227.67 299.37,-242.19 105.97,-45.79 282.03,13.78 408.76,36.82 1510.41,274.62 772.45,-25.09 1444.96,682.6l-100.02 680.04c-122.87,39.83 -147.23,8.64 -290.87,-18.77 -92.24,-17.6 -194.1,-42.99 -291.31,-44.04l15.98 -480.08c-170.58,-42.65 -931.57,-184.71 -1044.59,-138.26l-121.94 905.11c19.44,241.64 320.45,127.92 902.49,257.6 344.32,76.71 240.85,5.52 457.4,301.52 48.46,66.25 62.37,74.78 111.71,139.79l113.98 141.75c61.04,87.05 54.93,50.21 50.19,189.31 -4.33,126.89 -38.16,336.86 -51.89,465.79 -71.7,673.15 -27.71,724.65 -450.89,1089.22 -225.38,194.16 -820,-8.4 -1232.94,-77.03 -385.52,-64.06 -314.35,50.86 -619.21,-385.07 -188.33,-269.29 -151.28,-457.47 -74.63,-841.39l664.11 113.51 -1.76 438.35c183.45,94.64 729.87,163 976.93,153.34zm-11065.78 -3055.97c228.96,-62.18 426.36,-232.23 535.83,-366.02 771.59,-943.06 821.34,-2498.8 619.4,-3646.21 -39.65,-225.23 -108.26,-484.15 -201.84,-679.76l-305.05 -605.07 1488 9.3 1230.84 162.68c130.01,29.05 180.93,279.39 254.62,385.9 49.53,71.59 71.22,105.57 116.12,174.96l256.13 281.91c179.38,182.68 662.09,396.8 738.63,576.41 64.68,151.81 74,232.41 157.99,387.61 232.15,429.04 740.28,785.11 1150.52,978.23 1906.04,897.3 4046.35,47.99 5744.56,-837.11 410.5,-213.96 1316.98,-778.33 1594.45,-1072.75l744.07 -802.07c87.56,132.65 6.99,98.37 180.29,203.37 541.77,328.2 1253.22,506.86 1762.68,857.76 294.17,202.6 539.26,338.34 784.31,554.48 48.91,43.14 28.86,25.74 55.07,52.95 7.24,7.51 25.99,30.64 33.24,38.21 77.93,81.32 138.97,103.22 224.76,177.31 239.56,206.88 431.32,466.62 622.96,725.53 43.3,58.49 30.39,48.92 77.79,104.7 292.83,344.66 513.11,748.07 743.77,1160.89 266.9,477.68 586.58,998.28 810.84,1490.95 106.27,233.45 459.44,835.99 496.67,1074.83 -1015.48,-105.56 -1713.37,29.22 -2547.02,460.73 -669.13,346.35 -835.49,518.41 -1323.92,1023.6 -96.66,99.98 -114.17,56.77 -210.58,185.4 -70.74,94.4 -50.96,102.06 -158.64,191.81 -102.96,-75.96 -375.68,-594.17 -476.65,-753.75 -585.88,-926.04 -838.81,-1814.42 -658.04,-2959.69 142,-899.61 498.78,-1793.84 1064.43,-2475.43 62.46,-75.27 37.17,-38.93 73.35,-68.73 90.12,-74.2 94.95,-72.5 164.7,-165.43 102.36,-136.41 327.39,-316.03 456.27,-398.49 -393.16,33.05 -977.84,672.04 -1189.36,1000.97l-57.62 89.71c-143.54,227.22 -276.79,438.8 -363.61,693.08 -378.65,1109.03 -532.89,1822.49 -354.2,3064.3l-148.67 -216.86c-84.21,-182.92 -106.47,-406.8 -169.81,-602.42l-40.93 -97.3c28.75,844.02 90.46,1038.15 492.81,1680.8 100.01,159.74 213.16,260.35 274.17,453.07 -458.59,-35 -1614.28,109.69 -2180.97,165.89 -435.46,43.19 -338.78,30.16 -625.13,231.66 23.01,-221.72 115.22,-737.49 99.65,-892.21 -11.15,-110.94 -241.46,-426.4 -335.61,-541.26 -324.09,-395.31 -858.79,-330.39 -1310.16,-431.68 24.21,-158.33 4.79,-542.31 108.43,-663.11 97.55,-84.06 563.86,68.99 723.42,73.57l-31.03 488.33c182.79,16.92 757.28,149.66 898.05,115.73 35.64,-176.49 42.46,-371.78 66.51,-557.08 47.6,-366.73 58.52,-378.51 -165.5,-602.51 -162.76,-162.76 -169.72,-367.94 -441.51,-419.9 -301.93,-57.72 -673.93,-115.62 -976.35,-158.99 -452.11,-64.83 -450.28,-42.12 -773.86,244.95 -90.64,80.42 -216.4,186.37 -247.9,320.91 -34.41,147.02 -43.5,393.73 -58.94,533.42 -39.85,360.71 -179.02,808.72 3.36,1078.58 115.93,171.54 316.2,470.63 503.25,502.48 310.27,52.82 699.44,26.28 968.16,181.08 34.46,154.15 8.99,389.39 -27.39,556.22l-60.85 169.5 -642.92 -74.05 68.54 -446.95c-9.91,-5.38 -22.92,-9.56 -31.3,-12.37l-501.46 -110.36c-113.06,-22.17 -419.59,-105.52 -474.24,-101.49 -42.74,132.02 -129.75,791.87 -83.67,945.12 38.2,127.03 215.46,297.83 295.05,398.44l135.03 203.21 1660.41 234.73c119.45,-162.58 219.79,-211.43 338.02,-340.24l218.86 -172.14c5.75,-16.66 19.56,-14.81 30.02,-21.05l-597.95 5827.87c-804.91,-6.49 -1647.27,16.18 -2460.74,23.96 -805.88,7.73 -3587.3,-169.23 -4526.11,-425.08 -426.03,-116.11 -1554.9,-382.83 -1864.41,-658.42 -56.64,-92.5 -114.07,-1321.76 -125.59,-1524.72 -12.9,-227.2 -43.73,-499.25 -53.67,-752.95l-114 -1496.44c-37.34,-251.12 -39.21,-468.94 -52.91,-720.45 -82.33,-1511.02 -99.17,-3115.72 117.1,-4594.16 119.78,-818.88 578.84,-2140.56 621.83,-2591.31l-421.43 767.95c-32.21,56.71 -54.25,75.37 -82.14,137.6 -52.17,116.46 -41.65,202.8 -128.48,320.45 -20.07,-310.2 54.35,-814.74 -2.42,-1056 -61.31,307.95 -146.52,571.14 -203.84,855.94 -184.31,915.76 -365.61,1906.4 -395.93,2860.55 -424.74,-19.96 -845.41,-101.06 -1252.47,-220.18 -60.56,-17.73 -130.71,-32.47 -188.45,-53.13l-159.69 -94.27zm1652.62 -9201.58c181.26,-91.63 429.72,-175.27 678.64,-153.82 128.33,1096.23 648.74,1825.78 702.99,2214.77l-929.11 -1225.99c-253.38,-422.34 -141.41,-147.76 -452.52,-834.96zm-581.12 -761.25c47.13,104.05 38.56,301.54 62.34,422.92 39.45,201.38 56.02,192.66 -50.27,335.6 -382.21,513.99 138.47,262.05 270.15,250.44 151.37,688.25 883.87,1419.49 1235.18,1942.71 284.41,423.57 555.7,828.6 599.26,1383.14 -184.5,0 -470.02,-76.77 -645.38,-101.12 -238.09,-33.07 -478.21,-26.28 -715.56,-64.14 -486.77,-77.64 -1096.05,68.55 -1461.28,-21.59l100.66 -1089.18c19.45,-186.03 19.3,-404.65 34.83,-561.01 89.14,-897.63 41.78,-1172.5 299.45,-2149.15 58.21,-220.65 60.53,-296.77 270.62,-348.62zm0 0l0 0zm477.4 393.16c-66.38,-225.78 -86.6,-944.13 37.69,-1122.19 98.14,-140.6 774.97,150.1 898.54,194.28l-172.17 840.15c-1.51,-5.12 -8.16,15.75 -10.08,24.39 -370.69,-72.22 -325.25,77.59 -753.98,63.37zm4112.8 167.19c68.62,-420.6 -39.83,-908.27 40.17,-1414.88 550.43,78.12 1005.14,23.6 1420.36,56.41 143.03,11.3 311.07,40.43 454.99,37.28l125.95 229.09 -452.69 351.87c-465.24,316.26 -1050.78,603.93 -1588.78,740.23zm-135.57 -1337.15c6.34,51.97 2.38,5.8 3.02,65.41l-18.09 1189.93c-123.98,-19.1 -297.06,-133.62 -407.37,-228.95l-587.93 -716.22c-93.88,-175.35 -114.45,-312.8 -163.8,-506.64 242.24,-14.49 1048.69,11.28 1151.48,115.75 43.89,73.57 8.63,-34.66 22.69,80.72zm-961.96 -1321.66c-132.25,167.65 -235.33,219.6 -343.87,353.48 -66.52,82.05 -86.82,110.67 -149.42,212.78 -19.71,32.16 -40.5,70.63 -68.54,117.09 -4.29,7.11 -10.58,17.61 -14.53,24.02l-47.26 71.22c-233.88,-4.8 -430.05,84.69 -618.64,188.27 -108.5,59.58 -169.92,86.01 -287.81,146.65 -406.85,209.31 -124.13,381.62 -783.47,36.55 -517.34,-270.76 -356.54,-84.33 -362.41,41.48 -0.26,5.58 -2.09,31.75 -2.28,26.8 -0.2,-4.93 0.36,18.47 -3.15,30.36l-176.29 -6.86 -40.07 -123.56c-43.11,-102.93 -8.91,40.58 -50.82,-86.52 92.29,-102.62 272.52,-538.54 494,-823.7 69.56,-89.57 86.14,-91.54 142.76,-184.41 340.73,-558.8 664.33,-444.24 932.19,-1330.75 67.76,-224.26 375.05,-690.98 533.36,-736.27 -15.14,248.32 -105.82,420.6 -105.8,702.59 0.07,888.63 590.35,1460.45 921.08,1352.33l-47.38 -32c-121.34,-71.52 -200.73,-72.94 -310.98,-160.06 -86.88,-68.66 -167.33,-164.77 -216.25,-292.05 -93.11,-242.23 -87.54,-692.27 -14.7,-963.09 141.94,-527.71 607.48,-839.78 1008.79,-1098.66 506,-326.41 914.96,-531.76 1113.88,386.6 112.5,519.38 70.96,1508.57 -357.57,1666.17 55.24,-189.72 128.51,-233.91 177.31,-467.98 126.34,-605.94 -155.96,-1210.2 -708.53,-935.66 -235.34,116.94 -416.13,393.36 -466.61,742.2 -98.07,677.79 125.04,760.42 170.11,1018.78l-317.1 124.2zm-4298.91 11137.58c0.71,142.56 62.46,39.45 -65.55,165.45 -224.45,220.92 -800.02,228.55 -1026.4,-16.69 -434.87,-102.76 -1034.59,-325.05 -1436.63,-500.73 -224.62,-98.15 -468.97,-185.38 -684.82,-286.46 -544.82,-255.15 -1273.3,-747.52 -1689.84,-1229.58 -1319.22,-1526.67 257.15,-4401.93 1131.5,-5743.04l2752.27 -4108.12c318.24,-510.47 923.24,-1443.94 1328.87,-1842.08l391.03 -337.53c201.22,-146.77 522.96,-132.98 782.22,-176.37 607.43,-101.65 1048.81,-226.43 1497.68,152.57 216.74,183 191.26,481.23 24.35,710.33 -310.46,426.14 -904.13,590.08 -1408.3,492.36 -343.77,-66.63 -451.07,-224.6 -621.89,-327.95 44.81,222.56 62.52,260.68 141.73,427.9 -103.75,92.17 -92.22,98.96 -244.64,174.78 -111.66,55.55 -154.73,86.32 -226.49,172.33l725.59 -119.85c89.41,64.19 54.49,79.21 84.32,99.82 175.69,121.43 -67.55,-53.13 80.09,2.65 84.14,239.02 28.18,304.71 -3.48,543.13 123.26,-63.77 41.34,18.14 135.35,-119.66 78.54,-115.14 121.35,-311.87 180.73,-441.61 125.67,-26.37 674.57,-120.87 763.03,-93.98 -74.35,430.37 -783.85,514.16 -1276.59,1343.86 -736.11,1239.51 -588.27,860.8 -1422.6,1159.95 210.61,159.69 574.41,142.82 864.54,155.4 -47.45,199.9 -292.91,381.41 -515.95,459.22 -441.65,154.1 -438.07,-24.21 -696.91,-133.59 126.96,281.31 117.13,212.66 334.95,444.14 91.88,97.65 -0.96,65.79 130.22,98.48 -17.91,284.83 -114.55,567.91 -164.49,857.55 -296.82,1721.5 28.98,2821.79 -767.65,4115.85l-406.55 577.29c-229.1,310.97 -341.14,296.12 -464.93,498.78 559.16,-61.13 1081.41,-546.14 1380.02,-1020.38 97.96,-155.57 166.68,-375.48 248.96,-525.97 131.38,102.28 378.57,663.44 450.72,944.3 290.22,1129.78 289.84,2492.64 -304.46,3427.45zm1612.34 -14408.72c92.08,-132.61 320.54,-243.35 474.18,-297.7l1782.19 -357.42c1020.17,-143.31 488.98,1186.08 -310.81,1392.83 -5,-7.88 -10.37,-19.44 -13.08,-24.92l-106.2 -224.71c-374.11,-689.15 -1125.28,-634.2 -1826.28,-488.08zm1177.76 -755.32c151.75,-242.9 1220.69,-1072.81 1829.58,-716.68 252.58,147.74 167.26,366.66 61.65,631.85 -417.44,-130.33 -398.11,-229.76 -947.58,-147.56 -473.49,70.83 -815.74,215.05 -943.65,232.39zm13292.63 7656.87c-39.31,18.81 -241.6,433.51 -274.95,493.15 -246.62,441.03 -371.93,547.68 -715.22,888.27l-403.65 356.75c-458.48,379.3 -1570.1,1047.55 -1782.37,1324.08 337.14,0.81 431.27,-169 657.63,-209.98 -42.43,108.76 -58.91,83.74 -122.42,179.09 -279.85,420.1 -543.99,716.16 -931.15,1031.65 -138.41,112.79 -36.03,74.51 -200.44,132.79 110.79,-272.88 127.66,-366.35 -212.24,-338.3 -298.92,24.67 -698.46,255.96 -702.51,593.84 -3.44,287.14 219.7,163.86 351.12,133.67l-198.23 140.14c-59.24,34.31 -119.99,52.7 -200.42,93.44 -131.1,66.41 -225.46,147.38 -352.24,218.7 -251.36,141.4 -517.72,232.59 -806.24,344.82 -1206.42,469.25 -2651.29,763.97 -3897.5,319.57 -437.31,-155.95 -792.93,-328.53 -1069.78,-700.8 -90.92,-122.27 -159.38,-220.04 -221.18,-389.46 518.66,176.55 977.52,418.34 1528.69,537.31 593.36,128.07 1232.16,121.55 1811,-46.28 919.73,-266.69 1033.9,-458.64 1680.35,-907.52l650.94 -359.91c87.41,-44.7 264.24,-131.22 300.96,-251.55l-500.71 153.1 -209.67 63.48c59.37,-194.45 272.76,-293.5 398.29,-1134.68 128.93,-864.02 -47.51,-937 -223.28,-1287.53l-21.21 55.7c-9.01,36.16 -44.88,583.8 -113.34,929.42 -384.26,1939.91 -2505.99,2775.25 -4277.45,2120.18 -203.52,-75.27 -160.72,-66.55 -325.27,-175.34 -374.8,-247.78 -1407.11,256.37 -2061.69,-1106.45 -264.25,-550.17 -367.05,-1825.76 -682.56,-2564.92 -126.3,-295.91 -541.49,-1288.97 -473.76,-1626.54 159.03,-31.87 449.33,-37.53 490.29,-242.88l-542.54 -38.73c-13.48,-265.08 -14.85,-387.55 81.78,-563.81 82.91,-22.58 625.8,-13.07 647.44,-7.64 -20.15,-101.95 -78.35,-149.3 -178.52,-199.22 -97.54,-48.61 -171.63,-58.54 -244.6,-138.74 96.09,-60.82 111.7,-52.39 223.98,-96.61 150.12,-59.12 362.72,-346.21 650.09,-282.58l18.28 97.74c1.27,12.6 1.51,21.68 2.46,35.01 6.92,97.2 -9.2,176.52 36.83,293.79 27.69,70.56 123.86,210.7 163.05,274.91 100.91,165.3 279.27,345.1 401.45,472.01 231.75,240.73 651.36,595.98 1026.58,752.55l-24.6 426.82c-817.64,150.87 -1889.28,615.04 -1717.92,1708.07l113.68 -189.13c843.26,-1899.79 3975.65,-993.3 5160.62,133.59 441.73,420.07 594.97,712.64 658.71,765.96 21.62,-39.56 15.17,-6.59 24.11,-85.05 6.7,-58.89 4.19,-34.24 -1.72,-91.11 -16.4,-157.84 -73.17,-316.45 -146.24,-443.92 -38.56,-67.3 -113.2,-195.19 -155.96,-249.2 -515.03,-650.45 -1471.09,-1086.76 -2236.97,-1293.49 -425.6,-114.88 -871,-156.64 -1269.27,-252.51 -67.07,-511.2 -59.2,-299.46 371.28,-497.68 410.89,-189.21 1327.7,-628.07 1618.54,-978.73 41.06,-49.52 18.92,-29.08 64.71,-79.23l156.22 -209.01c98.04,-195.02 56.99,-222.44 15.21,-431 -567.08,-196.54 -1278.42,-209.24 -1860.6,-253.07 -617.78,-46.52 -1357.1,-186.84 -1950.95,-155.74 236.36,-478.61 729.11,-786.95 1387.16,-961.71 879.43,-233.55 1132.3,-23.46 1945.09,120.53 -48.94,-97.49 -28.12,-86.93 -156.73,-154.88l-584.7 -239.12c-389.19,-95.18 -572.73,-82.87 -964.42,-77.38 31.64,-133.3 163.23,-263.78 280.22,-710.33 171.59,-654.94 93.38,-1097.51 -188.83,-1613.62 -129.08,-236.05 117.26,-436.13 41.47,-795 -96.04,2.08 -278.52,142.81 -329.24,189.1 -67.09,61.23 -38.78,55.83 -126.33,125.88 -212.93,170.36 -559.25,347.7 -820.28,450.01 27.84,-133.83 102.33,-254.73 162.07,-361.81 102.65,-183.96 62.8,-189.71 120.34,-398.63 68.95,-250.39 198.88,-181.78 317.02,-740.87 443.2,-63.23 822.12,-189.95 1123.35,-494.44 118.15,-119.42 280.31,-281.22 352.5,-486.62 68.87,-195.91 176.63,-439.45 145.9,-689.47 -208.69,25.82 -387.58,166 -545.21,303.49 -133.3,116.25 -129.88,100.14 -251.23,180.99 -193.65,129.04 -593.49,377.9 -794.39,431.08 -262.18,69.39 -374.57,-117.55 -518.68,-179.48l367.19 -428c8.11,-6.88 33.81,-24.6 42.33,-31.06 340.25,-257.51 798.64,-497.97 1197.45,-638.28 329.14,-115.79 637.76,-235.2 1023.15,-297.29 1158.37,-186.66 2418.74,-175.24 3538.49,163.21 268,81.02 1801.4,637.12 1913.57,725.64 -143.46,111.7 -204.93,182.22 -219.38,413.31l58.97 19.27c239.57,42.13 -148.86,5.52 58.92,7.78l248.42 -68.56c607.98,-195.48 1442.31,-703.07 2099.28,-1029.34 1999.24,-992.9 2404.17,252.94 2520.24,284.04 310.28,937.69 235.84,1757.16 -163.26,2657.03 -304.38,686.29 -829.31,1288.07 -1488.26,1609.44 -107.05,-156.08 -376.35,-1109.56 -355.22,-1350.1 33.1,-376.69 296.29,-771.73 539.85,-1043.91 3.74,-4.18 14.62,-8.39 17.3,-20.64 2.7,-12.29 12.07,-13.42 17.15,-20.92 -180.62,-84.53 -418.32,185.01 -549.81,210.15 66.32,-407.64 417.74,-826.71 658.02,-1133.24 498.37,-635.78 736.43,-526.55 1216.86,-401.55 -66.85,-154.8 -136.59,-202.04 -291.81,-291.76 -313.35,-282.26 -854.81,4.63 -1111.85,156.72 -555.8,328.86 -1507.83,1556.56 -1445.14,2354.38 12,152.67 84.22,446.12 183.29,563.05 -8.89,-209.42 -20.75,-234.88 40.37,-404.93 126.13,62.15 78.93,25.08 141.68,168.73 456.62,1045.26 626.91,1902.8 877.91,3063.21 115.67,534.8 341.18,1182.3 406.95,1735.2 116.02,975.44 66.59,1088.43 -132.66,1939.44zm-10338.38 -11112.9c99.5,156.65 275.63,448.06 379.74,575.03 -99.81,92.91 -465.26,262.48 -637.11,360.54 -376.13,214.62 -401.88,307.7 -595.1,428.65 -74.9,-570.89 -250.03,-752 -424.22,-1108.37 -151.46,-142.08 -213.04,-340.17 -546.55,-308.41 -12.56,203.23 361.58,881.26 421.04,1228.79 -188.58,-95.97 -250.69,-265.75 -531.18,-295.02 32.25,100.2 55.98,224.03 97.21,331.74 105.81,276.43 240.02,205.53 375.09,922.14l-819.37 370.44c-478.04,-681.66 -463.84,-2064.65 87.47,-2610.63 453.97,-449.57 1160.71,-743.74 1771.64,-290.97 151.71,112.43 340.26,352.01 421.34,396.07zm-3174.23 1098.2c0,352.3 31.42,723.65 112.36,1039.42 52.67,205.47 168,434.45 275.7,604.81 -80.55,127.42 -207.15,216.63 -332.9,320.01 -138.62,113.95 -208.87,195.61 -327.56,325.67 -173.37,189.97 -197.48,131.54 -438.03,208.65 -411.48,131.9 -709.75,402.5 -1098.59,555.24 -86.74,34.08 -137.12,65.63 -209.56,114.35 -512.74,344.89 -927.56,852.01 -1287.55,1364.07 -98.14,139.58 -168.7,250.98 -266.85,389.97 -467.67,662.26 -852.84,1384.15 -1335.49,2023.28l-953.11 1344.64c-54.53,78.75 -85.73,140.1 -146.31,218.71 -775.3,1005.88 -1428.69,2205.64 -1964.89,3374.51 -283.31,617.59 -529.16,1642.75 -529.16,2466.35 0,1456.96 1113.49,2229.56 2127.89,2828.15 593.95,350.5 1171.94,609.28 1851.47,804.09 141.9,40.68 441.24,110.9 522.79,230.97 98.42,144.9 172.46,342.34 304.71,461.97 379.42,343.19 1656.23,607.53 2389.81,607.53 0,500.05 -29.28,1152.42 18.03,1607.68 3.96,38.14 12.97,97.84 16.68,184.06 6.77,157.22 -9.64,331.41 2.42,485.8l93.87 1283.21c90.66,742.5 72.41,1511.39 171.61,2209.83l50.16 918.46c-2.02,188.37 32.13,729.01 67.58,862.64 63.69,240.12 317.59,354.96 532.15,407.91 0,431.21 -35.28,722.97 -35.28,1158.44l0 1270.54c0,405.76 37.84,720.59 34.69,1084.33l459.92 6239.22c-2.92,546.62 81.89,531.49 387.33,748.15 0,216.61 -79.11,797.36 -141.11,934.21 -450.54,0 -995.77,-26.78 -1385.94,26.68l-620.16 90.45c-194.01,34.09 -405.88,78.96 -574.29,139.05 -1224.55,436.9 -1836.56,1179.37 -1845.57,2546.75 -2.94,447.1 137.1,767.07 447.03,1038.19 99.59,87.11 84.95,79.89 218.22,142.53 106.31,49.98 132.17,75.53 246.64,112.42 198.38,63.95 364.99,87.78 563.7,150.27 1513.59,476.01 1092.96,170.67 1670.64,245.27 345.29,44.59 300.92,104.78 750.57,104.78 991.64,0 3446.56,-697.51 4221.91,-1133.16 1053.5,-591.9 732.89,-1901.36 545.55,-3094.79 -65.42,-416.77 -172.92,-827.01 -181.35,-1227.91 264.28,-148.14 249.75,-190.23 247.19,-597.65l35.2 -822.2c32.78,-642.92 16.79,-1037.2 33.95,-1645.64 5.2,-184.45 32.39,-186.78 37.59,-371.24 4.16,-147.55 -6.47,-303.32 -2.31,-450.87l112.14 -1637.55c24.01,-246.68 100.68,-537.13 100.68,-790.21l70.56 0c15.58,198.38 301.99,651.26 403.11,843.53 152.02,289.07 235.67,572.82 384.65,863.1 290.85,566.71 524.42,1160.38 788.17,1743.56 396.29,876.25 725.86,1853.35 948.43,2806.99 155.5,666.28 95.45,421.82 580.08,693.45l101.4 1463.84c10.04,95.33 2.66,154.4 -5.33,245.14l-5.52 387.82c-26.68,850.62 -82.1,1703.22 594.58,2259.63 261.21,214.78 508.04,406.02 807.45,564.71 1287.95,682.65 1762.85,399.51 2233,512.01 440.03,105.29 993.07,157.03 1438.29,36.81 65.74,-17.74 154.98,-51.24 208.09,-78.52 385.74,-198.19 246.02,-44.63 630,-115.66 193.55,-35.8 300.41,-52.75 454.84,-117.84 466.92,-196.82 986.81,-708.11 986.81,-1308.94 0,-706.86 -104.21,-1293.32 -502.4,-1709.96 -186.31,-194.95 -266.64,-285.22 -504.99,-436.67 -513.38,-326.19 -1095.6,-537.12 -1682.25,-684.37 -831.01,-208.6 -528.3,-7.62 -859.59,-1070.01 -42.65,-136.78 -109.64,-268.93 -119.66,-396.43 493.55,-139.59 216.46,-923.31 155.62,-1360.64 -52.2,-375.15 -84.3,-692.9 -126.8,-1061.49 -72.12,-625.54 -240.49,-1540.57 -240.49,-2136.87 244.38,372.54 472.66,756.04 780.39,1079.17l1254.69 1212.01c721.1,627.51 2044.38,1296.23 2974.37,1296.23 1059.89,0 1782.66,-117.72 2656.75,-623.7 587.14,-339.89 1052.36,-809.13 1456.4,-1372.05 458.51,-638.81 755.18,-1842.93 755.18,-2675.37 0,-2572.02 -993.6,-2934.49 337.63,-4799.27 302.4,-423.59 438.48,-701.19 438.48,-1254.5 0,-687.64 -581.73,-1195.81 -1234.72,-1195.81 -888.21,0 -1414.17,426.63 -1925.46,1174.15 -819.62,1198.32 -700.48,2694.25 -463.91,4084.81 177.08,1040.9 465.44,1691.37 101.79,2743.8 -127.73,369.66 -403.56,692.18 -690.53,912.77 -1085.52,834.46 -2627.26,329 -3504.87,-590.85l-440.44 -467.69c-196.74,-205.98 -1349.39,-1655.66 -1366.86,-1877.95 361.2,-8.52 970.88,-495.75 1157.62,-791.68 146.59,-232.3 368.07,-496.79 429.88,-777.82 311.28,0 672.18,56.35 928.53,-212.23 195.53,-204.87 206.83,-690.68 255.83,-999.55 193.28,-1218.3 165.22,-795.72 905.86,-1581.54 414.23,-439.51 779.85,-837.39 1091.44,-1384.95 828.92,-1456.64 614.55,-2903.97 39.88,-4395.35 -77.19,-200.32 6.22,-207.72 83.69,-368.95 155.61,-323.86 -0.5,-517.17 -118.61,-785.67 -161.82,-367.85 -300.4,-731.76 -498.43,-1078.88 -326.04,-571.56 -595.6,-1173.19 -945.4,-1726.5 -143.81,-227.46 -259.24,-440.04 -407.57,-651.97 -857.7,-1225.47 -1455.88,-1893.14 -2710.53,-2547.3l-1058.86 -485.23c-132.34,-65.19 -191.02,-146.94 -352.77,-186.85 0,-269.45 4.16,-455.35 221.98,-586.98l942.26 -720.86c443.18,-361.57 830.86,-865.81 1082.27,-1394.66 166.05,-349.3 227.99,-591.95 288.4,-965.05 268.07,-1655.57 -700.47,-3593.22 -700.47,-4404.15 278.87,-68.82 658.52,-414.5 855.65,-625.77 515.67,-552.64 892.69,-1134.31 1124.89,-1872.67 440.8,-1401.67 259.14,-3284.99 -1391.5,-3583.94 -207.59,-37.6 -211.74,-10.87 -447.5,-9.3 -519.96,3.46 -1182.94,322.65 -1564.69,510.95l-673.12 370.67c-1082.96,553.64 -300.98,444.14 -2374.26,-330.86 -1568.91,-586.47 -3247.9,-653.57 -4878.08,-251.27 -240.01,-480.48 -728.12,-1111.97 -1187.1,-1358.36 -573.03,-307.61 -1154.28,-267.76 -1723.1,31.98 -114.31,60.24 -231.92,136.14 -324.83,216.47l-704.77 935.04c-104.15,235.36 -187.7,590.96 -187.7,922.25z"/>
   <path fill="#F6A627" d="M15233.88 -1622.72c-1.99,106.28 -104.41,330.68 -147.86,396.33 -69.45,104.91 -224.35,190.93 -405.76,141.82 -600.31,-162.49 -363.56,-1436.44 242.25,-1305.94 279.85,60.3 316.41,498.37 311.37,767.79zm-948.47 -3213.54c962.52,-245.49 794.87,1603.51 111.78,1081.37 -107.23,-81.95 -131.47,-141.7 -182.92,-307.4 -93.84,-302.19 -55.7,-542.94 71.14,-773.97zm-60.95 -2635.02c501.6,-194.06 836.36,626.55 560.3,1067.29 -310.73,69.92 -440.44,-117.24 -529.94,-353.27 -125.08,-329.89 -109.03,-410.01 -30.36,-714.02zm-2750.44 3953.41l-64.74 45.05c-170.38,102.06 -397.34,146.97 -587.99,164.01 -259.4,23.2 -494.09,-43.69 -671.19,-137.58 -370.3,-196.33 -622.95,-477.43 -725.97,-987.39 -97.7,-483.67 -90.9,-1076.09 90.01,-1497.11 225.57,-524.98 469.79,-619.64 811.44,-820.96l46.85 -27.79c-77.29,-226.45 -223.49,-503.36 -157.64,-784.64 270.31,224.92 217,435.52 887.68,904.27 351.43,245.61 750.97,523.68 970.3,805.54 462.81,594.74 390.12,1394.61 -88.65,1979.47 -95.16,116.25 -343.97,297.67 -510.1,357.13zm1473.17 -5520.7c336.01,-183.44 673.64,255.24 658.36,498.69 -38.08,606.97 -758.09,281.33 -795.39,-218.3 -23.38,-313.26 127.56,-275.22 137.03,-280.39zm-1105.87 810.65c833.33,324.01 1580.76,1387.49 1251.12,2238.29 -89.72,-103.25 -82.46,-206.18 -137.83,-352.77 -120.14,-318.02 -287.43,-567.8 -550.96,-762.97 -554.61,-410.78 -1420.54,-399 -1934.57,-940.5l-287.22 -369.03c-247.06,-365.33 -427.43,-805.08 -357.53,-1373.85 228.41,-13.08 174.74,-31.46 282.77,149.52 411.82,689.89 986.88,1120.73 1734.22,1411.31zm-723.14 -1284.99c-35.69,-30.69 -17.1,-14.56 -53.97,-54.15l-105.79 -117.01c-119.42,-121.34 -213.4,-185.86 -237.98,-412.94 55.58,-33 54.03,-46.75 65.64,-54.55l43.77 -27.06c321.98,-169.46 1040.71,123.07 1123.25,265.53 77.39,133.58 115.58,318.34 92.71,517.44 -140.8,50.45 -126.11,112.1 -335.85,112.1 -207.31,0 -363.27,-69.42 -529.25,-183.23 -2.89,-1.98 -52.55,-37.55 -62.53,-46.13zm-1738.44 -966.07c50.98,287.65 -12.67,506.83 -208.48,604.44 -709.02,353.44 -776.34,-316.17 -403.69,-545.66 185.53,-114.26 423.83,-123.55 612.17,-58.78zm-499.87 7764.06c228.26,64.54 357.02,89.96 601.92,123.44 370.06,50.58 714.25,187.22 997.13,443.17 70.32,63.62 145.82,131.59 184.59,177.54 98.84,117.19 29.94,122.75 186.45,173.13 -194.6,40.15 -371.45,69.08 -566.79,113.78 -171.31,39.2 -344.16,93.63 -418.09,257.85 193.6,11.44 389.85,-43.87 622.96,-47.45 249.53,-3.83 434.34,-29.42 692.58,-12.93 -56.82,136.43 0.51,178.45 32.76,315.87 37.25,158.65 18.55,252.68 51.77,427.75 -315.01,-97.72 -922.44,-257.5 -1218.29,-95.21 -28.03,247.49 38.18,200.83 248.64,228.07 149.83,19.39 255.64,55.27 417.47,85.83 152.04,28.71 247.33,37.38 414.54,86.84 149.98,44.35 255.99,101.98 392.67,122.25 -135.69,-28.83 -81.58,42.56 -75.85,220.03 4.13,128.05 7.05,249.29 5.47,378.06 -3.23,263.01 -32.98,518.71 -21.62,779.75 175.77,350.53 352.21,423.51 223.28,1287.53 -125.53,841.18 -338.92,940.23 -398.29,1134.68l209.67 -63.48c-53.41,-49.74 83.7,-124.3 -98.6,-45.81l214.57 -400.2c58.67,-166.65 110.85,-337.81 130.97,-509.71l15.02 124.01c1.45,7.38 4.45,19.67 5.94,26.33 1.39,6.23 5.76,19.29 6.98,24.24 1.19,4.77 3.59,16.13 7.52,23.15 73.96,-156.49 8.31,-122.41 142.12,-242.56 73.69,57.22 44.42,28.42 108.75,100.56l101.91 147.25 235.51 -6.23c-12.95,105.96 -26,254.06 85.19,308.57 139.35,68.31 34.02,29.18 85.28,-12.65 -250.63,-238.02 -77.32,-521.45 121.29,-661.75 228.47,-161.42 448.59,-329.82 813.1,-269.19 116.5,295.52 122.39,82.51 82.01,493.57 1.21,0.13 54.16,96.53 87.88,-137.76 16.49,-114.58 12.59,-195.2 -34.02,-269.22 3.59,-5.8 11.38,-20.66 12.93,-15.64 16.38,52.85 180.57,-356.53 349.76,-502.57 117.62,-101.54 184.58,-267.32 246.67,-406.02 10.56,-23.58 22.32,-50.99 36.63,-77.47l64.99 -104.44c89.32,227.66 39.82,82.99 113.68,106.82 -50.13,-74.12 -104.76,-97.32 -123.45,-273.19 -92.54,-870.74 1231.51,-1544.01 1114.92,-235.6 100.45,148.19 86.53,-266.35 79.75,-322.4 -52.55,-434.07 -79.05,-154.44 124.31,-480.05 4.32,-6.91 9.2,-16.63 13.31,-23.73l547.2 -1026.31c98.15,-217.42 85.67,-421.32 93.93,-749.56 142.65,-5.67 279.3,-50.45 350.19,-174.65 80.63,-141.26 48.29,-63.81 5.99,-87.55 -126.68,109.29 -181.33,255.74 -446.86,194.1 -158.83,-36.87 -280.17,-209.08 -333.45,-374.03 -122.76,-380.04 -146.12,-939.76 118.71,-1127.61 227.3,-73.12 229.43,-40.16 434.82,42.88 -47.52,-211.13 -115.7,1.37 -163.48,-262.71 -18.37,-101.48 -25.39,-290.17 -34.69,-416.76 -20.74,-282.35 -57.36,-340.27 -25.45,-546.95 24.97,-161.69 58.24,-55.45 -8.16,-148.46 -112.27,118.27 -235.89,366.53 -525.63,147.51 -500.77,-378.54 -425.3,-1477.05 167.49,-1196.84 82.93,39.2 126.36,132.46 207.13,176.56 191.71,-0.76 -183.42,-138.78 -121.26,-399.76 46.64,-195.79 47.85,18.04 87.07,-237.45l48.5 -261.54c47.09,186.73 169.95,476.22 238.81,715.51 210.05,729.98 374.63,1580.42 563.96,2315.67 366.27,1422.39 321.16,1159.1 373.46,2491.36 11.46,291.75 -150.93,629.28 -142.72,730.02l30.08 101.69c199.25,-851.01 248.68,-964 132.66,-1939.44 -65.77,-552.9 -291.28,-1200.4 -406.95,-1735.2 -251,-1160.41 -421.29,-2017.95 -877.91,-3063.21 -62.75,-143.65 -15.55,-106.58 -141.68,-168.73 -61.12,170.05 -49.26,195.51 -40.37,404.93 -99.07,-116.93 -171.29,-410.38 -183.29,-563.05 -62.69,-797.82 889.34,-2025.52 1445.14,-2354.38 257.04,-152.09 798.5,-438.98 1111.85,-156.72l370.44 -1.79c2.44,-5.78 0.77,-15.83 0.97,-18.96l4.02 -67.42c0.88,-7.81 2.08,-20.91 3.11,-28.48 1.11,-8.27 4.22,-23.75 5.3,-30.79 1.17,-7.57 6.23,-15.92 7.21,-32.8 1.02,-17.72 3.34,-23.64 8.13,-34.26 -116.07,-31.1 -521,-1276.94 -2520.24,-284.04 -656.97,326.27 -1491.3,833.86 -2099.28,1029.34l-248.42 68.56c-207.78,-2.26 180.65,34.35 -58.92,-7.78l-58.97 -19.27c14.45,-231.09 75.92,-301.61 219.38,-413.31 -112.17,-88.52 -1645.57,-644.62 -1913.57,-725.64 -1119.75,-338.45 -2380.12,-349.87 -3538.49,-163.21 -385.39,62.09 -694.01,181.5 -1023.15,297.29 -398.81,140.31 -857.2,380.77 -1197.45,638.28 -8.52,6.46 -34.22,24.18 -42.33,31.06l-367.19 428c144.11,61.93 256.5,248.87 518.68,179.48 200.9,-53.18 600.74,-302.04 794.39,-431.08 121.35,-80.85 117.93,-64.74 251.23,-180.99 157.63,-137.49 336.52,-277.67 545.21,-303.49 30.73,250.02 -77.03,493.56 -145.9,689.47 -72.19,205.4 -234.35,367.2 -352.5,486.62 -301.23,304.49 -680.15,431.21 -1123.35,494.44 -118.14,559.09 -248.07,490.48 -317.02,740.87 -57.54,208.92 -17.69,214.67 -120.34,398.63 -59.74,107.08 -134.23,227.98 -162.07,361.81 261.03,-102.31 607.35,-279.65 820.28,-450.01 87.55,-70.05 59.24,-64.65 126.33,-125.88 50.72,-46.29 233.2,-187.02 329.24,-189.1 75.79,358.87 -170.55,558.95 -41.47,795 282.21,516.11 360.42,958.68 188.83,1613.62 -116.99,446.55 -248.58,577.03 -280.22,710.33 391.69,-5.49 575.23,-17.8 964.42,77.38l584.7 239.12c128.61,67.95 107.79,57.39 156.73,154.88 -812.79,-143.99 -1065.66,-354.08 -1945.09,-120.53 -658.05,174.76 -1150.8,483.1 -1387.16,961.71 593.85,-31.1 1333.17,109.22 1950.95,155.74 582.18,43.83 1293.52,56.53 1860.6,253.07z"/>
   <path fill="#F9A929" d="M-2215.37 5701.59c-36.34,-913.3 939.59,-539.54 1147.69,-289.93 123.96,148.68 222.39,460.68 163.17,661.19 -85.64,289.98 -436.58,337.79 -678.03,262.12 -192.25,-60.24 -619.67,-302.73 -632.83,-633.38zm2292.85 -149.47c-166.32,-574.35 493.32,-678.87 875.48,-495.27 240.07,115.34 299.24,320.67 196.77,586.98 -96.88,251.81 -490.5,432.04 -857.27,235.04 -154.66,-83.07 -157.59,-128.57 -214.98,-326.75zm-3219.64 -1031.41c-808.47,52.82 -812.01,-955.11 -339.71,-1423.86 72.48,-71.95 -17.64,-29.16 99.74,-86.14 535.32,-259.85 779.2,625.47 519.31,1187.12 -95.77,206.96 -171.17,143.54 -279.34,322.88zm2284.57 -1696.52c-13.72,63.17 -63.38,173.07 -90.62,228.41 -51.67,104.95 -64.04,111.29 -136,192.03 -436.75,490.02 -971.16,122.64 -786.46,-673.03 15.66,-67.44 51.95,-164.17 79.33,-215.62 167.68,-315.12 473.5,-640.76 790.5,-342.58l71.86 76.47c152.37,190.78 115.54,531 71.39,734.32zm-944.01 -2130.04c-23.01,181.2 -137.16,410.43 -207.38,490.97 -200.81,230.32 -758.88,363.76 -907.31,49.71 -84.17,-178.08 -92.43,-389.51 -28.61,-584.68 59.27,-181.27 144.39,-324.71 219.15,-446.68 89.53,-146.07 204.97,-212.1 404.73,-260.5 470.94,-114.14 573.3,326.71 519.42,751.18zm2211.33 -560.52c-118.36,764.26 -1300.39,786.49 -977.43,-216.68 237.18,-736.72 1136.6,-811.23 977.43,216.68zm-983.8 -1644.25c-13.38,28.99 -84.65,158.51 -99.92,181.88 -134.66,206.14 -248.25,343.84 -528.92,337.96 -715.77,-14.98 -310.14,-1188.43 282.19,-1250.5 207.38,-21.73 315.12,31.06 364.18,207.35 38.26,137.47 38.17,402.66 -17.53,523.31zm472.79 8851.56c9.85,-103.04 -273.55,-202.15 -41.92,-630.19 280.75,-94.03 412.75,-112.74 716.67,20.67 172.25,75.6 129.84,88.11 251.4,188.66 131.46,108.75 145.34,66.95 165.8,272.1 594.3,-934.81 594.68,-2297.67 304.46,-3427.45 -72.15,-280.86 -319.34,-842.02 -450.72,-944.3 -82.28,150.49 -151,370.4 -248.96,525.97 -298.61,474.24 -820.86,959.25 -1380.02,1020.38 123.79,-202.66 235.83,-187.81 464.93,-498.78l406.55 -577.29c796.63,-1294.06 470.83,-2394.35 767.65,-4115.85 49.94,-289.64 146.58,-572.72 164.49,-857.55 -131.18,-32.69 -38.34,-0.83 -130.22,-98.48 -217.82,-231.48 -207.99,-162.83 -334.95,-444.14 258.84,109.38 255.26,287.69 696.91,133.59 223.04,-77.81 468.5,-259.32 515.95,-459.22 -290.13,-12.58 -653.93,4.29 -864.54,-155.4 834.33,-299.15 686.49,79.56 1422.6,-1159.95 492.74,-829.7 1202.24,-913.49 1276.59,-1343.86 -88.46,-26.89 -637.36,67.61 -763.03,93.98 -59.38,129.74 -102.19,326.47 -180.73,441.61 -94.01,137.8 -12.09,55.89 -135.35,119.66 31.66,-238.42 87.62,-304.11 3.48,-543.13 -147.64,-55.78 95.6,118.78 -80.09,-2.65 -29.83,-20.61 5.09,-35.63 -84.32,-99.82l-725.59 119.85c71.76,-86.01 114.83,-116.78 226.49,-172.33 152.42,-75.82 140.89,-82.61 244.64,-174.78 -79.21,-167.22 -96.92,-205.34 -141.73,-427.9 170.82,103.35 278.12,261.32 621.89,327.95 504.17,97.72 1097.84,-66.22 1408.3,-492.36 166.91,-229.1 192.39,-527.33 -24.35,-710.33 -448.87,-379 -890.25,-254.22 -1497.68,-152.57 -259.26,43.39 -581,29.6 -782.22,176.37l-391.03 337.53c-405.63,398.14 -1010.63,1331.61 -1328.87,1842.08l-2752.27 4108.12c-874.35,1341.11 -2450.72,4216.37 -1131.5,5743.04 416.54,482.06 1145.02,974.43 1689.84,1229.58 215.85,101.08 460.2,188.31 684.82,286.46 402.04,175.68 1001.76,397.97 1436.63,500.73z"/>
   <path fill="#FCCA74" d="M11428.18 1062.85c-11.36,-261.04 18.39,-516.74 21.62,-779.75 1.58,-128.77 -1.34,-250.01 -5.47,-378.06 -5.73,-177.47 -59.84,-248.86 75.85,-220.03 -136.68,-20.27 -242.69,-77.9 -392.67,-122.25 -167.21,-49.46 -262.5,-58.13 -414.54,-86.84 -161.83,-30.56 -267.64,-66.44 -417.47,-85.83 -210.46,-27.24 -276.67,19.42 -248.64,-228.07 295.85,-162.29 903.28,-2.51 1218.29,95.21 -33.22,-175.07 -14.52,-269.1 -51.77,-427.75 -32.25,-137.42 -89.58,-179.44 -32.76,-315.87 -258.24,-16.49 -443.05,9.1 -692.58,12.93 -233.11,3.58 -429.36,58.89 -622.96,47.45 73.93,-164.22 246.78,-218.65 418.09,-257.85 401.34,-91.84 631.95,11.41 380.34,-286.91 -38.77,-45.95 -114.27,-113.92 -184.59,-177.54 -282.88,-255.95 -627.07,-392.59 -997.13,-443.17 -244.9,-33.48 -373.66,-58.9 -601.92,-123.44 41.78,208.56 82.83,235.98 -15.21,431l-156.22 209.01c-45.79,50.15 -23.65,29.71 -64.71,79.23 -290.84,350.66 -1207.65,789.52 -1618.54,978.73 -430.48,198.22 -438.35,-13.52 -371.28,497.68 398.27,95.87 843.67,137.63 1269.27,252.51 765.88,206.73 1721.94,643.04 2236.97,1293.49 42.76,54.01 117.4,181.9 155.96,249.2 73.07,127.47 129.84,286.08 146.24,443.92 5.91,56.87 8.42,32.22 1.72,91.11 -8.94,78.46 -2.49,45.49 -24.11,85.05 -63.74,-53.32 -216.98,-345.89 -658.71,-765.96 -1184.97,-1126.89 -4317.36,-2033.38 -5160.62,-133.59l-113.68 189.13c-171.36,-1093.03 900.28,-1557.2 1717.92,-1708.07l24.6 -426.82c-375.22,-156.57 -794.83,-511.82 -1026.58,-752.55 -122.18,-126.91 -300.54,-306.71 -401.45,-472.01 -39.19,-64.21 -135.36,-204.35 -163.05,-274.91 -46.03,-117.27 -29.91,-196.59 -36.83,-293.79 -0.95,-13.33 -1.19,-22.41 -2.46,-35.01l-18.28 -97.74c-287.37,-63.63 -499.97,223.46 -650.09,282.58 -112.28,44.22 -127.89,35.79 -223.98,96.61 72.97,80.2 147.06,90.13 244.6,138.74 100.17,49.92 158.37,97.27 178.52,199.22 -21.64,-5.43 -564.53,-14.94 -647.44,7.64 -96.63,176.26 -95.26,298.73 -81.78,563.81l542.54 38.73c-40.96,205.35 -331.26,211.01 -490.29,242.88 -67.73,337.57 347.46,1330.63 473.76,1626.54 315.51,739.16 418.31,2014.75 682.56,2564.92 654.58,1362.82 1686.89,858.67 2061.69,1106.45 164.55,108.79 121.75,100.07 325.27,175.34 1771.46,655.07 3893.19,-180.27 4277.45,-2120.18 68.46,-345.62 104.33,-893.26 113.34,-929.42l21.21 -55.7z"/>
   <path fill="#F6A627" d="M17812.84 16314.57c39.37,367.41 118.9,491.41 -68.68,856.88 -60.2,117.29 -114.99,210.47 -290.06,230.93 -290.19,33.9 -481.25,-181.61 -465.13,-528.66 10.53,-226.66 96.22,-280.14 145.07,-339.81 208.87,-255.13 316.6,-347.85 678.8,-219.34zm1381.93 -1740.84c680.39,-323.4 647.12,1068.02 13.63,1325.01 -791.13,320.94 -589.04,-1051.51 -13.63,-1325.01zm-1170.27 -800.25c313.56,886 -554.45,1591.54 -891.43,1203.57 -247.59,-285.06 -4.22,-762.13 211.25,-1027.46 205.25,-252.77 255.81,-312.01 680.18,-176.11zm2610.91 -784.74c348.12,-119.72 539.4,241.44 499.3,594.17 -33.53,294.91 -193.47,640.36 -399.39,723.43 -363.56,146.68 -541.86,-252.88 -497.5,-605.48 23.54,-187.06 199.05,-643.85 397.59,-712.12zm-1488.79 -1046.53c155.58,-60.19 87.95,-92.87 256.18,-12.31 111.81,53.55 100.61,45.26 159.38,145.11 85.09,144.57 113.58,311.25 99.55,505.29 -78.89,1091.13 -1505.14,959.66 -856.84,-407.41 88.29,-186.18 130.85,-149.09 341.73,-230.68zm893.09 -1525.63c222.06,-37.65 406.27,121.94 520.49,301.63 161.78,254.52 175.66,881.8 -111.63,1035.42 -597.11,319.29 -999.72,-1236.89 -408.86,-1337.05zm-2991.3 1656.92c228.71,-198.14 708.69,-992.48 1545.37,-1095.15 -298.18,219.17 -165.48,81.5 -539.82,397.22 -107.64,90.78 -361.43,357.44 -436.41,472.5 -94.37,144.82 -286.46,391.85 -361,550.46 -498.91,1061.5 -542.76,1785.77 -981.16,2736.83 -78.29,169.86 -324.38,448.5 -383.77,540.53 237.25,0.88 185.33,12.3 230.27,55.64 -877.11,343.95 -1135.96,-598.35 -2182.84,514.86 -71.33,75.84 -85.43,101.94 -163.92,163.1 -243.5,189.75 -152.82,175.41 -291.08,325.27 -208.64,226.14 -823.5,439.54 -872.52,611.34 -49.39,173.1 125.55,991.8 851.3,824.45 328.41,-75.72 1241.9,-626.01 1532.25,-917.36 -42.54,226.78 -333.69,629.17 -449.04,794.16 -280.98,401.94 -397.34,745.44 -679.47,1150.26 -316.15,453.63 -711.5,500.42 -1236.86,387.48 229.14,726.6 1457.44,1035.75 2404.53,-11.32l271.62 -348.82c90.29,-136.6 159,-275.53 239.38,-366.44 20.29,399.3 -183.49,801.2 -365.7,1018.5 -148.29,176.83 -514.05,446.24 -747.99,580.41 339.54,305.17 739.86,28.43 1084.47,-146.68 194.95,-99.07 334.54,-178.4 474.89,-320.88 114.84,-116.57 296.17,-313.36 426.32,-361.63 -61.7,535.26 -394.9,546.17 -442.38,742.76 479.83,22.92 670.35,-185.26 1023.43,-473.69 628.96,-513.78 897.73,-1979.34 988.04,-2091.87 296.27,-369.22 1373.09,-1418.56 1779.43,-1777.45 631.63,-557.86 1359.32,-1756.28 1438.53,-2697.1 57.37,-681.32 -25.45,-1178.02 -192.76,-1827.26 -60.1,-233.21 -444.68,-1448.89 -521.86,-1541.96 -649.06,-159.47 -1838.34,179.26 -2343.83,468.2 -292.46,167.16 -630.45,416.69 -859.93,617.2 -656.45,573.58 -219.54,297.38 -237.49,1026.44z"/>
   <path fill="#F6A627" d="M12745.07 29396.44c81.63,-62.17 219.12,-27.52 310.31,22.36 75.59,41.34 132.13,106.25 162.34,217.98 205.27,759.2 -787.64,761.74 -611.03,-21.75 41.4,-183.63 -9.29,-33 65.78,-135.46l72.6 -83.13zm1583.21 -974.32c781.72,-158.82 579.27,794.94 59.31,900.41 -703.07,142.58 -769.24,-756.19 -59.31,-900.41zm-2186.75 -214.7c332.35,2251.02 -392.2,3039.06 595.56,3948.48 264.63,243.65 536.75,409.39 897.3,578.04 716.15,335 1789.09,692.78 1734.39,-597.2 -43.44,-1024.64 -582.65,-1391.63 -1108.68,-1872.17 261.21,-4.56 591.68,178.9 764.59,323.39 436.92,365.1 672.95,869.12 762.7,1474.4 66.57,448.9 -68.35,618.07 -138.63,967.07 2474.74,582.34 1770.31,-1673.47 1216.55,-2332.17 -493.33,-586.82 -772.66,-514.55 -949.4,-677.44 1508.47,47.99 2192.52,1796.51 1805.18,2837.36 290.26,-20.42 496.72,-176.21 654.53,-290.59 599.75,-434.66 472.36,-1977.96 -764.94,-2547.2 -1009.41,-464.38 -1150.04,-390.55 -2187.63,-672.69 -52.09,-230.66 -85.54,-465.54 -162.95,-724.9 -61.45,-205.89 -153.91,-465.98 -190.64,-683.46 -228.44,37.32 -439.52,134.71 -680.71,185.67 -1080.84,228.29 -1145.99,172.22 -2247.22,83.41z"/>
   <path fill="#F6A627" d="M21385.55 24510.9c377.52,-85.7 801.88,121.54 870.48,333.49 95.71,295.69 -96.11,530.79 -319.45,622.97 -340.17,140.41 -1050.6,141.86 -1131.27,-264.96 -85.83,-432.83 241.77,-614.65 580.24,-691.5zm-5686.47 -2964.67c649.8,-242.8 1165.77,962.45 602.39,1168.39 -767.19,280.46 -1053.46,-999.85 -602.39,-1168.39zm8851.81 149.09c-299.84,194.5 -535.21,227.05 -754.93,-100.35 -233.85,-348.47 -261.92,-1269.76 297.36,-1195.94 130.61,17.25 229.88,120.28 313.18,213.07 177.32,197.53 178.06,830.9 144.39,1083.22zm-1516.68 -3655.94c152.34,-70.01 339.08,8.27 453.47,109.23 318.33,280.93 286.81,1095.85 -108.71,1301.15 -731.31,379.6 -871.48,-1168.29 -344.76,-1410.38zm-52.84 4580.08c42.84,-36.77 22.79,-16.42 61.67,-77.28 94.46,-147.86 -1.24,-143.65 166.79,-183.16 751.98,-176.79 568.27,1418.87 -173.6,1347.85 -242.18,-23.19 -250.13,-131.42 -271.33,-180.28 -53.22,-117.75 -12.25,-202.68 11.09,-322.64 -440.94,590.79 -84.83,346.22 -793.47,928.6 -838.79,689.34 -2260.48,642.24 -3243.66,20.9 -138.53,-87.54 -395.69,-288.72 -507.21,-327.71 48.31,126.17 34.48,214.16 -28.4,329.89 -64.65,119 9.42,43.81 -114.28,119.84 -389.09,239.12 -1051.83,-151.55 -1038.11,-750.5 8.36,-364.77 282.8,-346.58 445.29,-414.9 -36.01,-79.5 -4.62,-16.58 -59.36,-81.83 -0.09,-0.1 -37.49,-39.69 -51.43,-55.52 -47.78,-54.3 -69.94,-86.09 -113.71,-143.9 -73.1,-96.55 -141.7,-166.46 -209.43,-264.46 -139.11,-201.31 -204.54,-218.37 -427.45,-556.36l-400.1 -584.42c-134.86,-194.62 -292.02,-385.53 -389.13,-580.9 -332.58,23.41 -550.74,39.83 -891.41,32.17 40.94,806.83 629.25,2075 1173.96,2644.4 189.77,198.37 414.04,562.73 752.35,847.18 130.17,109.44 134.23,174.78 268.25,273.57l432.97 363.34c42.53,35.67 82.79,59.13 146.47,106.44 118.68,88.16 197.07,130.06 327.01,215.43 229.02,150.48 430.37,290.03 705.67,370.19 -2.82,-98.32 -104.19,-10.54 -180.3,-188.69 -27.18,-63.61 -24.22,-257.72 12.18,-324.93 208.98,-385.95 1424.49,-305.36 1266.04,624.13 -133.41,81.9 -324.96,94.28 -466.71,147.33 309.72,25.63 615.25,142.98 995.32,150.89 1024.38,21.34 1847.82,-118.37 2677.96,-746.46 -16.51,-313.97 -179.69,-537.01 127.1,-841.95 243.64,-242.15 471.52,-220.46 714.11,11.45 105.56,-189.45 245.3,-344.22 389.9,-668.99 915.69,-2056.71 -349.29,-4149.94 88.53,-5737.25 91.95,-333.36 191.91,-454.65 304.47,-724.02 -233.62,-16.45 -53.71,-4.63 -208.81,-106.84 -200.95,-132.41 -368.16,-46.68 -505.47,-4.74 -216.1,65.98 -227.97,22.66 -236.24,21.55 -10.27,-1.37 -27.48,4.31 -34.87,-9.73 -7.45,-14.17 -23.48,-6.57 -34.72,-11.36 -80.18,-80.77 -223.77,-477.64 -215.12,-609.62l-72.08 -93.29c-101.15,-132.03 -123.97,-184.66 -242.14,-242.81 -244.09,290.12 -394.78,862.09 -454.12,1357.43 -229.1,1912.45 747.67,3534.95 295.53,4921.96z"/>
   <path fill="#F6A627" d="M5295.75 29954.06c-228.2,-753.05 774.95,-840.46 879.59,-180.29 49.1,309.81 -58.85,578.62 -360.47,589.53 -266.89,9.65 -436.79,-137.57 -519.12,-409.24zm-2635.45 2115.17c11.02,-179.99 -60.1,-219.16 -44.88,-396.2 4.52,-2.93 13.95,-8.59 15.57,-3.44 1.72,5.48 14.01,-3.28 16.46,-4.03l169.27 -48.61c25.22,-0.01 99.18,19.75 118.29,24.29l-116.66 39.91c368.51,98.12 922.03,-11.36 1275.12,-28.54 436.79,-21.25 772.2,-103.16 1152.54,-323.19 112.91,-65.31 144.72,-61 247.23,-117.09l877.91 -563.65c90.29,-56.24 225.98,-122.16 289.52,-215.89 81.23,-119.81 47.6,-176.39 79.52,-322.36 54.47,-249.1 26.3,-74.99 171.99,-238.4 0.12,0.28 100.33,465.4 423.65,389.45 106.54,-25.03 57.93,27.7 101.02,-65.74 -368.79,55.06 -528.52,-247.24 -412.23,-602.87 51.7,-158.09 126.3,-222.58 279.46,-230.7 207.44,-10.97 227.81,34.75 301.81,143.64 92.28,-260.09 -379.2,-224.64 -582,-226.01 65.41,-101.07 274.58,-310.58 212.3,-526.5 -108.46,-376.03 -22.94,-540.74 -230.82,-675.93 108.48,274.48 187.72,580.25 -12.99,838.08 -196.45,252.35 -433.94,219.9 -635.18,19.31 -364.95,-363.81 -90.53,-1347.71 583.15,-970.1 14.82,-72.87 -37.48,-75.27 -50.84,-84.13 -107.97,-71.54 -76.56,-23.83 -87.47,-19.32l531.04 -98.88c74.67,-21.86 24.9,0.6 85.06,-26.43 20.67,-9.3 38.62,-20.01 56.46,-30.57l56.03 -41.59c-430.49,-30.84 -960.94,440.89 -3037.92,13.64l-114.46 736.2c256.67,18.24 736.11,132.71 917.01,238 -69.97,97.35 -9.81,58.86 -145.93,99.34l-953.54 6.96c-379.71,0.69 -729.3,31.59 -1093.16,40.72 -911.14,22.88 -1543.22,116.01 -2301.39,547.49 -183.76,104.59 -326.92,239.84 -458.57,411.23 -311.18,405.12 -465.22,1104.38 -375.1,1612.95 56.17,316.96 274.34,527.21 572.52,610.87 -51.84,-433.17 -176.48,-563.08 -114.63,-1086.32 169.64,-1435.02 1491.67,-1762.13 1721.65,-1633.72 -310.43,74.25 -632.7,363.63 -838.66,622.62 -172.9,217.42 -391.05,644.96 -454.27,1011.38 -69.26,401.41 -96.17,920.76 233.76,1152.78 89.03,62.61 1125.27,474 1098.79,176.25 -16.34,-183.64 -144.68,-250.05 -66.52,-916.84 101.13,-862.64 645.6,-1690.77 1592.62,-1808.36 -6.64,7.28 -15.9,16.42 -20.85,20.85l-64.73 55.43c-0.69,0.49 -62.51,38.36 -68.29,41.9 -290.14,177.99 -647.73,570.34 -789.96,880.05 -138.72,302.06 -431.49,1255.11 -108.7,1572.07z"/>
   <path fill="#E99E1A" d="M16395.72 -1132.77c744.03,-218.42 576.1,1065.73 130.58,1212.36 -342.12,112.59 -556.6,-128.84 -548.14,-507.14 4.86,-217.04 145.49,-625.35 417.56,-705.22zm-400.22 -4637.72c160.34,186.47 185.1,573.18 151.01,872.77 66.4,93.01 33.13,-13.23 8.16,148.46 -31.91,206.68 4.71,264.6 25.45,546.95 9.3,126.59 16.32,315.28 34.69,416.76 47.78,264.08 115.96,51.58 163.48,262.71 4.6,5.75 11.92,13.59 14.56,16.55 297.86,335.49 372.34,826.35 212.22,1248.11 42.3,23.74 74.64,-53.71 -5.99,87.55 -70.89,124.2 -207.54,168.98 -350.19,174.65 -8.26,328.24 4.22,532.14 -93.93,749.56l-547.2 1026.31c-4.11,7.1 -8.99,16.82 -13.31,23.73 -203.36,325.61 -176.86,45.98 -124.31,480.05 6.78,56.05 20.7,470.59 -79.75,322.4 -184.51,285.52 -204.03,371.86 -495.59,549.94 -162.15,99.03 -368.67,66.2 -495.88,-41.15 -73.86,-23.83 -24.36,120.84 -113.68,-106.82l-64.99 104.44c-14.31,26.48 -26.07,53.89 -36.63,77.47 -62.09,138.7 -129.05,304.48 -246.67,406.02 -169.19,146.04 -333.38,555.42 -349.76,502.57 -1.55,-5.02 -9.34,9.84 -12.93,15.64 46.61,74.02 50.51,154.64 34.02,269.22 -33.72,234.29 -86.67,137.89 -87.88,137.76 -69.19,52.68 -134.5,145.55 -179.19,201.27 -127.85,159.4 -31.17,61.22 -232.23,169.11 -199.2,106.89 -401.44,187.01 -604.98,66.99 -51.26,41.83 54.07,80.96 -85.28,12.65 -111.19,-54.51 -98.14,-202.61 -85.19,-308.57l-235.51 6.23 -101.91 -147.25c-64.33,-72.14 -35.06,-43.34 -108.75,-100.56 -133.81,120.15 -68.16,86.07 -142.12,242.56 -3.93,-7.02 -6.33,-18.38 -7.52,-23.15 -1.22,-4.95 -5.59,-18.01 -6.98,-24.24 -1.49,-6.66 -4.49,-18.95 -5.94,-26.33l-15.02 -124.01c-20.12,171.9 -72.3,343.06 -130.97,509.71l-214.57 400.2c182.3,-78.49 45.19,-3.93 98.6,45.81l500.71 -153.1c-36.72,120.33 -213.55,206.85 -300.96,251.55l-650.94 359.91c-646.45,448.88 -760.62,640.83 -1680.35,907.52 -578.84,167.83 -1217.64,174.35 -1811,46.28 -551.17,-118.97 -1010.03,-360.76 -1528.69,-537.31 61.8,169.42 130.26,267.19 221.18,389.46 276.85,372.27 632.47,544.85 1069.78,700.8 1246.21,444.4 2691.08,149.68 3897.5,-319.57 288.52,-112.23 554.88,-203.42 806.24,-344.82 126.78,-71.32 221.14,-152.29 352.24,-218.7 80.43,-40.74 141.18,-59.13 200.42,-93.44l198.23 -140.14c-131.42,30.19 -354.56,153.47 -351.12,-133.67 4.05,-337.88 403.59,-569.17 702.51,-593.84 339.9,-28.05 323.03,65.42 212.24,338.3 164.41,-58.28 62.03,-20 200.44,-132.79 387.16,-315.49 651.3,-611.55 931.15,-1031.65 63.51,-95.35 79.99,-70.33 122.42,-179.09 -226.36,40.98 -320.49,210.79 -657.63,209.98 212.27,-276.53 1323.89,-944.78 1782.37,-1324.08l403.65 -356.75c343.29,-340.59 468.6,-447.24 715.22,-888.27 33.35,-59.64 235.64,-474.34 274.95,-493.15l-30.08 -101.69c-8.21,-100.74 154.18,-438.27 142.72,-730.02 -52.3,-1332.26 -7.19,-1068.97 -373.46,-2491.36 -189.33,-735.25 -353.91,-1585.69 -563.96,-2315.67 -68.86,-239.29 -191.72,-528.78 -238.81,-715.51l-48.5 261.54c-39.22,255.49 -40.43,41.66 -87.07,237.45 -62.16,260.98 312.97,399 121.26,399.76z"/>
   <path fill="#261403" d="M12027.1 -3695.21l-52.51 36.55 -4.92 2.94c-192.92,115.57 -438.08,167.08 -657.27,186.68 -260.75,23.32 -829.73,139.28 -1063.65,15.27 -449.84,-238.5 -771.76,-845.44 -878.3,-1372.86 -101.31,-501.51 -275.78,-969.42 -73.13,-1441.05 120.75,-281.02 266.47,-499.84 509.2,-674.87 93.11,-67.14 255.11,138.63 354.17,81.55 -36.5,-96.31 -72.96,-191.67 -98.35,-295.11 -36.64,-149.26 -47.72,-300.19 -12.31,-451.46l63.19 -269.89 341.37 182.35c71.01,59.09 130.18,124.04 185.9,199.04 73.33,98.74 171.6,138.54 253.21,231.71 136.89,156.24 277.82,130.31 445.13,247.25 332.03,232.05 754.98,516.36 1007.8,841.24 206.26,265.07 360.5,621.38 379.33,964.95 25.9,472.58 153.16,760.14 -136.76,1114.31 -120.41,147.09 -380.73,329.62 -562.1,401.4z"/>
   <path fill="white" d="M11474.02 -3517.87l0 0zm0 0c166.13,-59.46 414.94,-240.88 510.1,-357.13 478.77,-584.86 551.46,-1384.73 88.65,-1979.47 -219.33,-281.86 -618.87,-559.93 -970.3,-805.54 -670.68,-468.75 -617.37,-679.35 -887.68,-904.27 -65.85,281.28 80.35,558.19 157.64,784.64l-46.85 27.79c-341.65,201.32 -585.87,295.98 -811.44,820.96 -180.91,421.02 -187.71,1013.44 -90.01,1497.11 103.02,509.96 355.67,791.06 725.97,987.39 177.1,93.89 411.79,160.78 671.19,137.58 190.65,-17.04 417.61,-61.95 587.99,-164.01l64.74 -45.05z"/>
   <path fill="#934B16" d="M14461.63 11609.68c-4.99,11.35 -9.75,15.36 -11.84,35.38l-61.53 458.02c-48.22,599.59 -300.62,2644.56 -297.44,3000.79 1.64,184.52 -56.74,330.18 -56.98,494.82 1039.45,-677.68 1445.06,5.27 1733.44,-368.13 4.77,-6.18 10.99,-14.84 15.36,-21.45l80.85 -181.24c60.94,-130.81 116.2,-246.86 173.36,-372.93 223.8,-493.64 707.13,-2136.76 660.58,-2708.45 -211.4,46.62 -232.61,80.9 -451.89,30.84 -82.78,-118.9 -251.34,-433.36 -271.99,-617.17 -296.32,86.68 -1251.79,270.31 -1511.92,249.52z"/>
   <path fill="#FDB726" d="M3816.17 7719.03l240.25 27.3c-7.69,545.87 -155.29,1472.71 -177.61,2253.07 -16.67,583.06 -166.23,561.1 145.7,929.93 245.39,290.14 267.05,248.81 912.98,250.29 608.87,1.38 572.03,125.7 923.28,-238.72 327.39,-339.67 223.53,-115.33 313.76,-904.38 42.62,-372.69 59.7,-746.18 106.16,-1121.16 46.69,-376.81 45.96,-761.91 96.11,-1123.04 178.6,15.31 70.37,42.46 267.94,55.15l70.37 -737.55 -1162.2 -64.27 -64.25 674.26c62.93,27.01 40.12,4.18 70.36,8.35l129.61 28.63 -241.43 2748c-215.91,36.78 -689.68,54.87 -872.58,-17.92 -143.16,-277.86 -8.05,-972.97 18.51,-1339.55 27.64,-381.42 66.19,-987.44 139.78,-1352.77l245.52 -29.17 72.67 -720.07 -1172.85 -33.44 -62.08 707.06z"/>
   <path fill="#FCB423" d="M11791.19 11171.86c-247.06,9.66 -793.48,-58.7 -976.93,-153.34l1.76 -438.35 -664.11 -113.51c-76.65,383.92 -113.7,572.1 74.63,841.39 304.86,435.93 233.69,321.01 619.21,385.07 412.94,68.63 1007.56,271.19 1232.94,77.03 423.18,-364.57 379.19,-416.07 450.89,-1089.22 13.73,-128.93 47.56,-338.9 51.89,-465.79 4.74,-139.1 10.85,-102.26 -50.19,-189.31l-113.98 -141.75c-49.34,-65.01 -63.25,-73.54 -111.71,-139.79 -216.55,-296 -113.08,-224.81 -457.4,-301.52 -582.04,-129.68 -883.05,-15.96 -902.49,-257.6l121.94 -905.11c113.02,-46.45 874.01,95.61 1044.59,138.26l-15.98 480.08c97.21,1.05 199.07,26.44 291.31,44.04 143.64,27.41 168,58.6 290.87,18.77l100.02 -680.04c-672.51,-707.69 65.45,-407.98 -1444.96,-682.6 -126.73,-23.04 -302.79,-82.61 -408.76,-36.82 -33.61,14.52 -251.42,204.35 -299.37,242.19 -280.14,221.1 -191.1,238.57 -263.36,841.6 -61.41,512.53 -160.53,649.91 -0.05,874.71 337.36,472.58 327.2,408.03 638.8,442.66 174.3,19.36 781.48,113.32 851.7,220.85 54.32,83.18 -29.23,832.65 -61.26,988.1z"/>
   <path fill="#FCBA25" d="M8890.96 9106.26l-905.94 -96.69c-32.14,-165.4 23.9,-977.49 89.59,-1092.97 85.56,-99.85 822.69,51.49 902.16,85.49 67.52,249.04 -20.46,852.02 -85.81,1104.17zm-1663.93 -1947.27l-72.98 687.09 247.43 -5.85c-7.87,459.85 -99.09,1041.17 -141.78,1519.47l-108.01 1161.49c-32.38,215.93 -55.11,151.52 -271.31,151.29l-60.83 581.68 1189.09 111.97 -16.03 -565.45c-235.21,-69.64 -204.64,41.61 -165.63,-465.24 16.29,-211.63 11.45,-516.44 108.26,-676.61 972.82,-15.73 928.61,362.32 1441.01,-115.73 63.45,-59.2 44.37,-48.52 108.57,-104.49 47.1,-41.06 74.8,-51.29 115.69,-105.65 111.97,-148.91 166.9,-1010.78 187.03,-1224.86 36.76,-390.84 1.26,-236.75 -279.38,-596.59 -171.88,-220.4 -166.02,-155.17 -684.41,-208.74 -274.77,-28.41 -1425.89,-200.52 -1596.72,-143.78z"/>
   <path fill="#CF8A1B" d="M6940.35 27964.66c17.67,19.68 60.04,101.43 65.02,112.71 207.88,135.19 122.36,299.9 230.82,675.93 62.28,215.92 -146.89,425.43 -212.3,526.5 202.8,1.37 674.28,-34.08 582,226.01 40.18,170.15 77.54,256.6 18.16,450.49 -57.44,187.56 -44.44,125.01 -187.2,239.44 -43.09,93.44 5.52,40.71 -101.02,65.74 -323.32,75.95 -423.53,-389.17 -423.65,-389.45 -145.69,163.41 -117.52,-10.7 -171.99,238.4 -31.92,145.97 1.71,202.55 -79.52,322.36 -63.54,93.73 -199.23,159.65 -289.52,215.89l-877.91 563.65c-102.51,56.09 -134.32,51.78 -247.23,117.09 -380.34,220.03 -715.75,301.94 -1152.54,323.19 -353.09,17.18 -906.61,126.66 -1275.12,28.54l116.66 -39.91c-19.11,-4.54 -93.07,-24.3 -118.29,-24.29l-169.27 48.61c-2.45,0.75 -14.74,9.51 -16.46,4.03 -1.62,-5.15 -11.05,0.51 -15.57,3.44 -15.22,177.04 55.9,216.21 44.88,396.2 175.48,647.45 1513.08,276.09 2079.66,142.75 652.75,-153.63 1425.53,-359.16 2052.95,-589.88 937.7,-344.83 1205.43,-538.08 1083.07,-1580.98 -98.28,-837.74 -274.49,-1715.42 -345.35,-2377.38l-56.03 41.59c-17.84,10.56 -35.79,21.27 -56.46,30.57 -60.16,27.03 -10.39,4.57 -85.06,26.43l-531.04 98.88c10.91,-4.51 -20.5,-52.22 87.47,19.32 13.36,8.86 65.66,11.26 50.84,84.13z"/>
   <path fill="#E9B44B" d="M18112.85 -9890.79c155.22,89.72 224.96,136.96 291.81,291.76 -480.43,-125 -718.49,-234.23 -1216.86,401.55 -240.28,306.53 -591.7,725.6 -658.02,1133.24 131.49,-25.14 369.19,-294.68 549.81,-210.15 -5.08,7.5 -14.45,8.63 -17.15,20.92 -2.68,12.25 -13.56,16.46 -17.3,20.64 -243.56,272.18 -506.75,667.22 -539.85,1043.91 -21.13,240.54 248.17,1194.02 355.22,1350.1 658.95,-321.37 1183.88,-923.15 1488.26,-1609.44 399.1,-899.87 473.54,-1719.34 163.26,-2657.03 -4.79,10.62 -7.11,16.54 -8.13,34.26 -0.98,16.88 -6.04,25.23 -7.21,32.8 -1.08,7.04 -4.19,22.52 -5.3,30.79 -1.03,7.57 -2.23,20.67 -3.11,28.48l-4.02 67.42c-0.2,3.13 1.47,13.18 -0.97,18.96l-370.44 1.79z"/>
   <path fill="#FEDE89" d="M12598.28 16889.03c410.13,-180.89 671.54,-430 918.69,-716.87 299.3,-347.4 265.93,-730.09 310.18,-1389.15 35.44,-527.92 254.2,-2606.38 340.74,-3065.01l-344.36 53.15c-78.74,165.35 -158.11,1320.19 -189.13,1608.66 -56.78,528.06 -102,1201.56 -197.76,1687.76 -14.43,-34.1 -15.87,-8.39 -24.74,-99.01 -14.98,-152.94 328.9,-2819.73 344.38,-3268.84 -341.91,40.46 -447.62,-186.37 -605.34,-176.15 -99.75,367.3 -392.6,4486.62 -552.66,5365.46z"/>
   <path fill="#F6B424" d="M5289.58 -3945.4l-30.97 11.55c-330.73,108.12 -921.01,-463.7 -921.08,-1352.33 -0.02,-281.99 90.66,-454.27 105.8,-702.59 -158.31,45.29 -465.6,512.01 -533.36,736.27 -267.86,886.51 -591.46,771.95 -932.19,1330.75 -56.62,92.87 -73.2,94.84 -142.76,184.41 -221.48,285.16 -401.71,721.08 -494,823.7 41.91,127.1 7.71,-16.41 50.82,86.52l40.07 123.56 176.29 6.86c3.51,-11.89 2.95,-35.29 3.15,-30.36 0.19,4.95 2.02,-21.22 2.28,-26.8 5.87,-125.81 -154.93,-312.24 362.41,-41.48 659.34,345.07 376.62,172.76 783.47,-36.55 117.89,-60.64 179.31,-87.07 287.81,-146.65 188.59,-103.58 384.76,-193.07 618.64,-188.27l47.26 -71.22c3.95,-6.41 10.24,-16.91 14.53,-24.02 28.04,-46.46 48.83,-84.93 68.54,-117.09 62.6,-102.11 82.9,-130.73 149.42,-212.78 108.54,-133.88 211.62,-185.83 343.87,-353.48z"/>
   <path fill="#291804" d="M3878.25 7011.97l1172.85 33.44 -72.67 720.07 -245.52 29.17c-73.59,365.33 -112.14,971.35 -139.78,1352.77 -26.56,366.58 -161.67,1061.69 -18.51,1339.55 182.9,72.79 656.67,54.7 872.58,17.92l241.43 -2748 -129.61 -28.63c-30.24,-4.17 -7.43,18.66 -70.36,-8.35l64.25 -674.26 1162.2 64.27 -70.37 737.55c-197.57,-12.69 -89.34,-39.84 -267.94,-55.15 -50.15,361.13 -49.42,746.23 -96.11,1123.04 -46.46,374.98 -63.54,748.47 -106.16,1121.16 -90.23,789.05 13.63,564.71 -313.76,904.38 -351.25,364.42 -314.41,240.1 -923.28,238.72 -645.93,-1.48 -667.59,39.85 -912.98,-250.29 -311.93,-368.83 -162.37,-346.87 -145.7,-929.93 22.32,-780.36 169.92,-1707.2 177.61,-2253.07l-240.25 -27.3 62.08 -707.06zm-97.18 -178.41c-118.53,186.01 -106.3,812.1 -145.25,1092.46 122.48,0 150.67,-22.11 248.06,17.71 -27.35,433.31 -116.69,856.02 -122.24,1269.4 -8.12,604.47 -180.34,1397.47 -12.64,1636.61l79.34 103.47c58.76,69.92 35.82,37.35 87.58,90.76 258.55,266.8 124.54,271.69 386.65,292 429.38,33.26 898.3,-12.5 1339.61,37.72 111.9,-163.79 123.8,-128.85 258.48,-244.44l265.07 -242.1c146.27,-119.72 148.56,-676.58 166.85,-897.46 53.74,-648.81 103.18,-1351.97 193.59,-1969.92l255.02 -24.06c45.84,-143.56 101.05,-913.49 66.96,-1067.44 -161.21,-30.68 -1313.46,-70.26 -1424.98,-38.26l-105.12 1017.54c-3.05,0.34 78.3,9.84 81.51,10.88 109.3,35.39 68.51,11.82 127.96,62.68 -64.92,382.48 -83.19,786.46 -114.84,1159.53 -16.88,198.97 -43.46,371.08 -57.95,584.91 -11.2,165.38 -5.76,405.43 -41.57,598.18 -194.43,59.94 -450.75,4.68 -650.71,11.43 3.05,-321.17 155.24,-2224.4 224.82,-2369.78 136.53,-17.96 134.4,2.01 241.07,-56.79l83.13 -1048.92 -1430.4 -26.11z"/>
   <path fill="#884715" d="M23454.18 16676.17c-8.65,131.98 134.94,528.85 215.12,609.62 11.24,4.79 27.27,-2.81 34.72,11.36 7.39,14.04 24.6,8.36 34.87,9.73 8.27,1.11 20.14,44.43 236.24,-21.55 137.31,-41.94 304.52,-127.67 505.47,4.74 155.1,102.21 -24.81,90.39 208.81,106.84l82.37 -106.94c6.56,-8.26 25.71,-31.13 32.26,-39.27 4.96,-6.18 43.01,-52.76 47.53,-58.95l194.69 -277.46c6.38,-8.77 24.99,-33.77 31.19,-42.7l29.93 -43.66c7.63,-12.07 32.98,-57.38 40.04,-70.26 115.3,-210.14 542.87,-725.18 14.32,-1204.81 -32.98,-29.93 -24.62,-22.74 -56.74,-51.87 -350.98,-318.31 -882.64,-202.78 -1231.63,19.22l-109.28 71.6c-9.42,5.43 -71.68,36.45 -72.81,37.11 -118.88,69.46 -85.61,61.27 -130.87,157.78 -39.8,84.87 -70.73,138.51 -164.39,202.04 -34.89,23.65 -46.06,23.75 -66.69,40.5l-181.22 247.77c7.94,6.95 20.43,5.56 24.43,20.02 3.92,14.14 18.24,15.32 23.55,20.09l136.56 130.51c111.33,110.13 92.79,47.5 121.53,228.54z"/>
   <path fill="#392609" d="M9824.33 -9788.75c-69.9,568.77 110.47,1008.52 357.53,1373.85l287.22 369.03c514.03,541.5 1379.96,529.72 1934.57,940.5 263.53,195.17 430.82,444.95 550.96,762.97 55.37,146.59 48.11,249.52 137.83,352.77 329.64,-850.8 -417.79,-1914.28 -1251.12,-2238.29 -747.34,-290.58 -1322.4,-721.42 -1734.22,-1411.31 -108.03,-180.98 -54.36,-162.6 -282.77,-149.52z"/>
   <path fill="#FDF4D4" d="M5258.61 -3933.85l30.97 -11.55 317.1 -124.2c-45.07,-258.36 -268.18,-340.99 -170.11,-1018.78 50.48,-348.84 231.27,-625.26 466.61,-742.2 552.57,-274.54 834.87,329.72 708.53,935.66 -48.8,234.07 -122.07,278.26 -177.31,467.98 428.53,-157.6 470.07,-1146.79 357.57,-1666.17 -198.92,-918.36 -607.88,-713.01 -1113.88,-386.6 -401.31,258.88 -866.85,570.95 -1008.79,1098.66 -72.84,270.82 -78.41,720.86 14.7,963.09 48.92,127.28 129.37,223.39 216.25,292.05 110.25,87.12 189.64,88.54 310.98,160.06l47.38 32z"/>
   <path fill="#291804" d="M9376.25 9543.1c-512.4,478.05 -468.19,100 -1441.01,115.73 -96.81,160.17 -91.97,464.98 -108.26,676.61 -39.01,506.85 -69.58,395.6 165.63,465.24l16.03 565.45 -1189.09 -111.97 60.83 -581.68c216.2,0.23 238.93,64.64 271.31,-151.29l108.01 -1161.49c42.69,-478.3 133.91,-1059.62 141.78,-1519.47l-247.43 5.85 72.98 -687.09c170.83,-56.74 1321.95,115.37 1596.72,143.78 518.39,53.57 512.53,-11.66 684.41,208.74 280.64,359.84 316.14,205.75 279.38,596.59 -20.13,214.08 -75.06,1075.95 -187.03,1224.86 -40.89,54.36 -68.59,64.59 -115.69,105.65 -64.2,55.97 -45.12,45.29 -108.57,104.49zm-2284.4 -2574.77c-68.99,146.5 -94.99,794.14 -94.5,1021.04l246.12 12.72 -251.82 2498.47 -246.26 -26.8 -97.71 914.84c295.39,59.78 1306.52,89.78 1447.43,217.75 110.28,-283.73 88.69,-636.03 113.53,-974.67l-266.28 -2.05 85.24 -793.59c709.31,103.06 1068.35,242.7 1374.09,-114.64l263.57 -245.26c187.71,-180.23 154.69,-101.14 201.67,-556.98 73.29,-711.07 220.63,-914.54 -41.17,-1261.67l-102.76 -114.65c-428.13,-496.42 -148.76,-315.33 -872.9,-407.54 -355.23,-45.23 -1509.1,-193.84 -1758.25,-166.97z"/>
   <path fill="#FDD97A" d="M5458.33 -11172.04c-98.18,-284.66 -314.1,-231.24 -451.18,-395.97 -143.3,-172.19 -137.78,-77.62 -211.49,-140.3 467.5,-254.28 924.62,-565.71 1586.99,-44.12 109.3,86.07 275.34,292.88 352.37,324.54 -81.08,-44.06 -269.63,-283.64 -421.34,-396.07 -610.93,-452.77 -1317.67,-158.6 -1771.64,290.97 -551.31,545.98 -565.51,1928.97 -87.47,2610.63l819.37 -370.44c-135.07,-716.61 -269.28,-645.71 -375.09,-922.14 -41.23,-107.71 -64.96,-231.54 -97.21,-331.74 280.49,29.27 342.6,199.05 531.18,295.02 -59.46,-347.53 -433.6,-1025.56 -421.04,-1228.79 333.51,-31.76 395.09,166.33 546.55,308.41z"/>
   <path fill="#FDB929" d="M5458.33 -11172.04c174.19,356.37 349.32,537.48 424.22,1108.37 193.22,-120.95 218.97,-214.03 595.1,-428.65 171.85,-98.06 537.3,-267.63 637.11,-360.54 -104.11,-126.97 -280.24,-418.38 -379.74,-575.03 -77.03,-31.66 -243.07,-238.47 -352.37,-324.54 -662.37,-521.59 -1119.49,-210.16 -1586.99,44.12 73.71,62.68 68.19,-31.89 211.49,140.3 137.08,164.73 353,111.31 451.18,395.97z"/>
   <path fill="#783C13" d="M6387.11 -1286.59c538,-136.3 1123.54,-423.97 1588.78,-740.23l452.69 -351.87 -125.95 -229.09c-143.92,3.15 -311.96,-25.98 -454.99,-37.28 -415.22,-32.81 -869.93,21.71 -1420.36,-56.41 -80,506.61 28.45,994.28 -40.17,1414.88z"/>
   <path fill="#FDF4D4" d="M11009.67 -4462.76c-251.75,986.12 -1479.51,992.86 -1197.54,-400.15 211.86,-1046.63 1512.21,-832.49 1197.54,400.15zm464.35 944.89l0 0z"/>
   <path fill="#392609" d="M11009.67 -4462.76c314.67,-1232.64 -985.68,-1446.78 -1197.54,-400.15 -281.97,1393.01 945.79,1386.27 1197.54,400.15z"/>
   <path fill="#FCBB29" d="M2603.01 -7216.54c701,-146.12 1452.17,-201.07 1826.28,488.08l106.2 224.71c2.71,5.48 8.08,17.04 13.08,24.92 799.79,-206.75 1330.98,-1536.14 310.81,-1392.83l-1782.19 357.42c-153.64,54.35 -382.1,165.09 -474.18,297.7z"/>
   <path fill="#794914" d="M-1801.6 694.15c53.88,-424.47 -48.48,-865.32 -519.42,-751.18 -199.76,48.4 -315.2,114.43 -404.73,260.5 -74.76,121.97 -159.88,265.41 -219.15,446.68 -63.82,195.17 -55.56,406.6 28.61,584.68 148.43,314.05 706.5,180.61 907.31,-49.71 70.22,-80.54 184.37,-309.77 207.38,-490.97z"/>
   <path fill="#794914" d="M-857.59 2824.19c44.15,-203.32 80.98,-543.54 -71.39,-734.32l-71.86 -76.47c-317,-298.18 -622.82,27.46 -790.5,342.58 -27.38,51.45 -63.67,148.18 -79.33,215.62 -184.7,795.67 349.71,1163.05 786.46,673.03 71.96,-80.74 84.33,-87.08 136,-192.03 27.24,-55.34 76.9,-165.24 90.62,-228.41z"/>
   <path fill="#794914" d="M-2215.37 5701.59c13.16,330.65 440.58,573.14 632.83,633.38 241.45,75.67 592.39,27.86 678.03,-262.12 59.22,-200.51 -39.21,-512.51 -163.17,-661.19 -208.1,-249.61 -1184.03,-623.37 -1147.69,289.93z"/>
   <path fill="#794914" d="M21385.55 24510.9c-338.47,76.85 -666.07,258.67 -580.24,691.5 80.67,406.82 791.1,405.37 1131.27,264.96 223.34,-92.18 415.16,-327.28 319.45,-622.97 -68.6,-211.95 -492.96,-419.19 -870.48,-333.49z"/>
   <path fill="#794914" d="M-3142.16 4520.71c108.17,-179.34 183.57,-115.92 279.34,-322.88 259.89,-561.65 16.01,-1446.97 -519.31,-1187.12 -117.38,56.98 -27.26,14.19 -99.74,86.14 -472.3,468.75 -468.76,1476.68 339.71,1423.86z"/>
   <path fill="#794914" d="M23034.21 18039.38c-526.72,242.09 -386.55,1789.98 344.76,1410.38 395.52,-205.3 427.04,-1020.22 108.71,-1301.15 -114.39,-100.96 -301.13,-179.24 -453.47,-109.23z"/>
   <path fill="#794914" d="M16605.07 -2258.18c160.12,-421.76 85.64,-912.62 -212.22,-1248.11 -2.64,-2.96 -9.96,-10.8 -14.56,-16.55 -205.39,-83.04 -207.52,-116 -434.82,-42.88 -264.83,187.85 -241.47,747.57 -118.71,1127.61 53.28,164.95 174.62,337.16 333.45,374.03 265.53,61.64 320.18,-84.81 446.86,-194.1z"/>
   <path fill="#794914" d="M19146.62 11942.21c-210.88,81.59 -253.44,44.5 -341.73,230.68 -648.3,1367.07 777.95,1498.54 856.84,407.41 14.03,-194.04 -14.46,-360.72 -99.55,-505.29 -58.77,-99.85 -47.57,-91.56 -159.38,-145.11 -168.23,-80.56 -100.6,-47.88 -256.18,12.31z"/>
   <path fill="#794914" d="M14398.92 1114.86c127.21,107.35 333.73,140.18 495.88,41.15 291.56,-178.08 311.08,-264.42 495.59,-549.94 116.59,-1308.41 -1207.46,-635.14 -1114.92,235.6 18.69,175.87 73.32,199.07 123.45,273.19z"/>
   <path fill="#783C13" d="M6236.47 -1368.4l18.09 -1189.93c-0.64,-59.61 3.32,-13.44 -3.02,-65.41 -14.06,-115.38 21.2,-7.15 -22.69,-80.72 -102.79,-104.47 -909.24,-130.24 -1151.48,-115.75 49.35,193.84 69.92,331.29 163.8,506.64l587.93 716.22c110.31,95.33 283.39,209.85 407.37,228.95z"/>
   <path fill="#834B13" d="M409.73 133.63c159.17,-1027.91 -740.25,-953.4 -977.43,-216.68 -322.96,1003.17 859.07,980.94 977.43,216.68z"/>
   <path fill="#834B13" d="M24550.89 21695.32c33.67,-252.32 32.93,-885.69 -144.39,-1083.22 -83.3,-92.79 -182.57,-195.82 -313.18,-213.07 -559.28,-73.82 -531.21,847.47 -297.36,1195.94 219.72,327.4 455.09,294.85 754.93,100.35z"/>
   <path fill="#794914" d="M18024.5 13773.48c-424.37,-135.9 -474.93,-76.66 -680.18,176.11 -215.47,265.33 -458.84,742.4 -211.25,1027.46 336.98,387.97 1204.99,-317.57 891.43,-1203.57z"/>
   <path fill="#794914" d="M19194.77 14573.73c-575.41,273.5 -777.5,1645.95 13.63,1325.01 633.49,-256.99 666.76,-1648.41 -13.63,-1325.01z"/>
   <path fill="#794914" d="M15699.08 21546.23c-451.07,168.54 -164.8,1448.85 602.39,1168.39 563.38,-205.94 47.41,-1411.19 -602.39,-1168.39z"/>
   <path fill="#834B13" d="M18231.65 23825.74c-95.61,-88.48 -12.92,-36.77 -71.36,-105.41 -29.39,-34.53 -6.58,-16.42 -56,-52.56 -8.63,-6.3 -37.83,-20.17 -46.91,-26.1 -149.13,-97.43 -27.39,-76.18 -359.39,-365.78l-201.84 -165.82c-162.49,68.32 -436.93,50.13 -445.29,414.9 -13.72,598.95 649.02,989.62 1038.11,750.5 123.7,-76.03 49.63,-0.84 114.28,-119.84 62.88,-115.73 76.71,-203.72 28.4,-329.89z"/>
   <path fill="#794914" d="M-574.07 -1510.62c55.7,-120.65 55.79,-385.84 17.53,-523.31 -49.06,-176.29 -156.8,-229.08 -364.18,-207.35 -592.33,62.07 -997.96,1235.52 -282.19,1250.5 280.67,5.88 394.26,-131.82 528.92,-337.96 15.27,-23.37 86.54,-152.89 99.92,-181.88z"/>
   <path fill="#794914" d="M20039.71 10416.58c-590.86,100.16 -188.25,1656.34 408.86,1337.05 287.29,-153.62 273.41,-780.9 111.63,-1035.42 -114.22,-179.69 -298.43,-339.28 -520.49,-301.63z"/>
   <path fill="#834B13" d="M18760.81 25695.4c60.78,100.94 521.89,252.48 631.21,257.84 141.75,-53.05 333.3,-65.43 466.71,-147.33 158.45,-929.49 -1057.06,-1010.08 -1266.04,-624.13 -36.4,67.21 -39.36,261.32 -12.18,324.93 76.11,178.15 177.48,90.37 180.3,188.69z"/>
   <path fill="#834B13" d="M15233.88 -1622.72c5.04,-269.42 -31.52,-707.49 -311.37,-767.79 -605.81,-130.5 -842.56,1143.45 -242.25,1305.94 181.41,49.11 336.31,-36.91 405.76,-141.82 43.45,-65.65 145.87,-290.05 147.86,-396.33z"/>
   <path fill="#794914" d="M20635.41 12988.74c-198.54,68.27 -374.05,525.06 -397.59,712.12 -44.36,352.6 133.94,752.16 497.5,605.48 205.92,-83.07 365.86,-428.52 399.39,-723.43 40.1,-352.73 -151.18,-713.89 -499.3,-594.17z"/>
   <path fill="#794914" d="M22981.37 22619.46c11.68,134.96 -122.47,436.12 -205.38,584.49 -23.34,119.96 -64.31,204.89 -11.09,322.64 21.2,48.86 29.15,157.09 271.33,180.28 741.87,71.02 925.58,-1524.64 173.6,-1347.85 -168.03,39.51 -72.33,35.3 -166.79,183.16 -38.88,60.86 -18.83,40.51 -61.67,77.28z"/>
   <path fill="#E9A41B" d="M2274.31 -1453.78c428.73,14.22 383.29,-135.59 753.98,-63.37 1.92,-8.64 8.57,-29.51 10.08,-24.39l172.17 -840.15c-123.57,-44.18 -800.4,-334.88 -898.54,-194.28 -124.29,178.06 -104.07,896.41 -37.69,1122.19z"/>
   <path fill="#733B11" d="M16395.72 -1132.77c-272.07,79.87 -412.7,488.18 -417.56,705.22 -8.46,378.3 206.02,619.73 548.14,507.14 445.52,-146.63 613.45,-1430.78 -130.58,-1212.36z"/>
   <path fill="#834B13" d="M77.48 5552.12c57.39,198.18 60.32,243.68 214.98,326.75 366.77,197 760.39,16.77 857.27,-235.04 102.47,-266.31 43.3,-471.64 -196.77,-586.98 -382.16,-183.6 -1041.8,-79.08 -875.48,495.27z"/>
   <path fill="#834B13" d="M16146.51 -4897.72c34.09,-299.59 9.33,-686.3 -151.01,-872.77 -80.77,-44.1 -124.2,-137.36 -207.13,-176.56 -592.79,-280.21 -668.26,818.3 -167.49,1196.84 289.74,219.02 413.36,-29.24 525.63,-147.51z"/>
   <path fill="#733B11" d="M7005.37 28077.37c-4.98,-11.28 -47.35,-93.03 -65.02,-112.71 -673.68,-377.61 -948.1,606.29 -583.15,970.1 201.24,200.59 438.73,233.04 635.18,-19.31 200.71,-257.83 121.47,-563.6 12.99,-838.08z"/>
   <path fill="#834B13" d="M10720.44 -10097.01c24.58,227.08 118.56,291.6 237.98,412.94l105.79 117.01c36.87,39.59 18.28,23.46 53.97,54.15 9.98,8.58 59.64,44.15 62.53,46.13 165.98,113.81 321.94,183.23 529.25,183.23 209.74,0 195.05,-61.65 335.85,-112.1 22.87,-199.1 -15.32,-383.86 -92.71,-517.44 -82.54,-142.46 -801.27,-434.99 -1123.25,-265.53l-43.77 27.06c-11.61,7.8 -10.06,21.55 -65.64,54.55z"/>
   <path fill="#F6B424" d="M2378.03 -1085.69c311.11,687.2 199.14,412.62 452.52,834.96l929.11 1225.99c-54.25,-388.99 -574.66,-1118.54 -702.99,-2214.77 -248.92,-21.45 -497.38,62.19 -678.64,153.82z"/>
   <path fill="#834B13" d="M-101.28 7340.94c226.38,245.24 801.95,237.61 1026.4,16.69 128.01,-126 66.26,-22.89 65.55,-165.45 -20.46,-205.15 -34.34,-163.35 -165.8,-272.1 -121.56,-100.55 -79.15,-113.06 -251.4,-188.66 -303.92,-133.41 -435.92,-114.7 -716.67,-20.67 -231.63,428.04 51.77,527.15 41.92,630.19z"/>
   <path fill="#733B11" d="M12504 2958.53c203.54,120.02 405.78,39.9 604.98,-66.99 201.06,-107.89 104.38,-9.71 232.23,-169.11 44.69,-55.72 110,-148.59 179.19,-201.27 40.38,-411.06 34.49,-198.05 -82.01,-493.57 -364.51,-60.63 -584.63,107.77 -813.1,269.19 -198.61,140.3 -371.92,423.73 -121.29,661.75z"/>
   <path fill="#FCBB29" d="M3780.77 -7971.86c127.91,-17.34 470.16,-161.56 943.65,-232.39 549.47,-82.2 530.14,17.23 947.58,147.56 105.61,-265.19 190.93,-484.11 -61.65,-631.85 -608.89,-356.13 -1677.83,473.78 -1829.58,716.68z"/>
   <path fill="#794914" d="M17812.84 16314.57c-362.2,-128.51 -469.93,-35.79 -678.8,219.34 -48.85,59.67 -134.54,113.15 -145.07,339.81 -16.12,347.05 174.94,562.56 465.13,528.66 175.07,-20.46 229.86,-113.64 290.06,-230.93 187.58,-365.47 108.05,-489.47 68.68,-856.88z"/>
   <path fill="#794914" d="M5295.75 29954.06c82.33,271.67 252.23,418.89 519.12,409.24 301.62,-10.91 409.57,-279.72 360.47,-589.53 -104.64,-660.17 -1107.79,-572.76 -879.59,180.29z"/>
   <path fill="#834B13" d="M14285.41 -4836.26c-126.84,231.03 -164.98,471.78 -71.14,773.97 51.45,165.7 75.69,225.45 182.92,307.4 683.09,522.14 850.74,-1326.86 -111.78,-1081.37z"/>
   <path fill="#794914" d="M14328.28 28422.12c-709.93,144.22 -643.76,1042.99 59.31,900.41 519.96,-105.47 722.41,-1059.23 -59.31,-900.41z"/>
   <path fill="#834B13" d="M14224.46 -7471.28c-78.67,304.01 -94.72,384.13 30.36,714.02 89.5,236.03 219.21,423.19 529.94,353.27 276.06,-440.74 -58.7,-1261.35 -560.3,-1067.29z"/>
   <path fill="#291804" d="M8763.9 8857.53c-74.62,70.72 -1.95,43.34 -141.76,56.02l-484.95 -72.96 59.55 -806.29 657.47 96.73 -90.31 726.5zm127.06 248.73c65.35,-252.15 153.33,-855.13 85.81,-1104.17 -79.47,-34 -816.6,-185.34 -902.16,-85.49 -65.69,115.48 -121.73,927.57 -89.59,1092.97l905.94 96.69z"/>
   <path fill="#834B13" d="M12947.19 -9038.57c-9.47,5.17 -160.41,-32.87 -137.03,280.39 37.3,499.63 757.31,825.27 795.39,218.3 15.28,-243.45 -322.35,-682.13 -658.36,-498.69z"/>
   <path fill="#834B13" d="M9379.74 -10478.98c-188.34,-64.77 -426.64,-55.48 -612.17,58.78 -372.65,229.49 -305.33,899.1 403.69,545.66 195.81,-97.61 259.46,-316.79 208.48,-604.44z"/>
   <path fill="#794914" d="M7436.85 30195.74c142.76,-114.43 129.76,-51.88 187.2,-239.44 59.38,-193.89 22.02,-280.34 -18.16,-450.49 -74,-108.89 -94.37,-154.61 -301.81,-143.64 -153.16,8.12 -227.76,72.61 -279.46,230.7 -116.29,355.63 43.44,657.93 412.23,602.87z"/>
   <path fill="#794914" d="M12745.07 29396.44l-72.6 83.13c-75.07,102.46 -24.38,-48.17 -65.78,135.46 -176.61,783.49 816.3,780.95 611.03,21.75 -30.21,-111.73 -86.75,-176.64 -162.34,-217.98 -91.19,-49.88 -228.68,-84.53 -310.31,-22.36z"/>
   <path fill="#FDEA96" d="M13172.41 18536.24l-315.2 -68.87c-52,263.14 -119.16,626.09 16.92,863.32 391.44,16.75 600.58,-339.59 598.12,-816.41l-210.07 10.62c-109.5,167.16 -81.56,648.73 -234.45,734.79l144.68 -723.45z"/>
   <path fill="#39322A" d="M7858.88 23189.4l163.93 -2564.31c-468.06,-234.14 -892.76,-161.31 -1444.84,-484.18 -196.81,-115.12 -454.1,-171.41 -669.47,-300.05 -197.22,-117.81 -407.87,-269.69 -496.55,-403.94 109.06,25.75 294.65,192.17 609.81,253.42l2121.73 558.25c504.62,139.7 497.19,27.33 621.38,264.28l317.66 599.25c196.24,406.84 366.52,778.9 589.24,1202.03 72.74,138.2 95.05,224.12 144.26,336.94l566.26 1270.73c47.72,107.57 114.29,233.05 143.25,297.62l511.67 1282.85c141.21,434.96 568.74,1739.75 613.48,2124.5 859.08,114.96 1465.67,307.85 2384.08,13.95 178.43,-57.09 263.11,-42.51 456.13,-82.7l809.54 -228.56c-47.91,-616.41 -172.42,-1112.6 -240.63,-1748.68 -120.94,-1127.74 -213.81,-2304.27 -381.39,-3412.93 -41.52,-274.67 -97.04,-538.87 -154.81,-808.01 -88.58,-412.71 -190.52,-432.65 -450.04,-456.04l-70.55 -217.45c-364.83,19.5 -1248.02,-14.03 -1476.96,-380.89 -131.41,-210.58 -221.99,-516.52 -408.38,-877.43 -43.03,-83.33 -71.33,-160.04 -100.07,-224.24 -108.47,-242.36 -30.8,-1225.44 9.67,-1494.68 -924.84,228.29 -3451.15,152.59 -4513.06,73.36l-112.42 -0.7c64.08,12.29 32.55,2.5 72.74,21.68l67.53 80.41 -102.88 30.9c-71.46,5.75 -66.99,-2.32 -124.17,-13.99l-14.78 1050.45c-4.93,-97.21 -143.99,-788.14 -207.78,-889.87 -50.55,-80.61 -82.36,-57.47 -98.2,-135.73l10.95 -37.15c32.64,-46.83 -19.16,148.34 53.91,-41.98 -79.92,-160.77 20.71,-81.12 -165.08,-122.61l-679.75 -111.44c-288.49,-36.7 -591.51,-137.76 -887.33,-187.84 -359.06,-60.78 -545.15,-96.18 -867.69,-194.09 -357.76,-108.61 -586.3,-107.41 -710.52,-195.19 -61.24,636.3 -91.25,1166.99 -96.6,1820.13l487.17 7437.34c16.32,248.36 -24.02,387.51 21.37,668.93l239.44 125.74c338.1,200.94 1694.17,254.51 2089.36,207.46 232.4,-27.68 1000.68,-33.4 1131.94,-177.79 121.23,-133.36 204.76,-3512.35 237.45,-3927.75z"/>
   <g clip-path="url(#id0)">
    <g>
     <path id="1" fill="#2E2822" d="M4372.23 17303.02c40.48,299.77 231.16,430.52 497.42,476.25l5566.83 984.26c3080.85,544.71 3717.98,5627.59 4593.18,9038.14l1058.34 -783.17 -2222.51 -9779 -9493.26 63.52z"/>
    </g>
   </g>
   <path fill="none" stroke="#39322A" stroke-width="20" stroke-miterlimit="22.9256" d="M7858.88 23189.4l163.93 -2564.31c-468.06,-234.14 -892.76,-161.31 -1444.84,-484.18 -196.81,-115.12 -454.1,-171.41 -669.47,-300.05 -197.22,-117.81 -407.87,-269.69 -496.55,-403.94 109.06,25.75 294.65,192.17 609.81,253.42l2121.73 558.25c504.62,139.7 497.19,27.33 621.38,264.28l317.66 599.25c196.24,406.84 366.52,778.9 589.24,1202.03 72.74,138.2 95.05,224.12 144.26,336.94l566.26 1270.73c47.72,107.57 114.29,233.05 143.25,297.62l511.67 1282.85c141.21,434.96 568.74,1739.75 613.48,2124.5 859.08,114.96 1465.67,307.85 2384.08,13.95 178.43,-57.09 263.11,-42.51 456.13,-82.7l809.54 -228.56c-47.91,-616.41 -172.42,-1112.6 -240.63,-1748.68 -120.94,-1127.74 -213.81,-2304.27 -381.39,-3412.93 -41.52,-274.67 -97.04,-538.87 -154.81,-808.01 -88.58,-412.71 -190.52,-432.65 -450.04,-456.04l-70.55 -217.45c-364.83,19.5 -1248.02,-14.03 -1476.96,-380.89 -131.41,-210.58 -221.99,-516.52 -408.38,-877.43 -43.03,-83.33 -71.33,-160.04 -100.07,-224.24 -108.47,-242.36 -30.8,-1225.44 9.67,-1494.68 -924.84,228.29 -3451.15,152.59 -4513.06,73.36l-112.42 -0.7c64.08,12.29 32.55,2.5 72.74,21.68l67.53 80.41 -102.88 30.9c-71.46,5.75 -66.99,-2.32 -124.17,-13.99l-14.78 1050.45c-4.93,-97.21 -143.99,-788.14 -207.78,-889.87 -50.55,-80.61 -82.36,-57.47 -98.2,-135.73l10.95 -37.15c32.64,-46.83 -19.16,148.34 53.91,-41.98 -79.92,-160.77 20.71,-81.12 -165.08,-122.61l-679.75 -111.44c-288.49,-36.7 -591.51,-137.76 -887.33,-187.84 -359.06,-60.78 -545.15,-96.18 -867.69,-194.09 -357.76,-108.61 -586.3,-107.41 -710.52,-195.19 -61.24,636.3 -91.25,1166.99 -96.6,1820.13l487.17 7437.34c16.32,248.36 -24.02,387.51 21.37,668.93l239.44 125.74c338.1,200.94 1694.17,254.51 2089.36,207.46 232.4,-27.68 1000.68,-33.4 1131.94,-177.79 121.23,-133.36 204.76,-3512.35 237.45,-3927.75z"/>
   <path fill="#023E8A" d="M5031.91 16935.43c938.81,255.85 3720.23,432.81 4526.11,425.08 813.47,-7.78 1655.83,-30.45 2460.74,-23.96l597.95 -5827.87c-10.46,6.24 -24.27,4.39 -30.02,21.05l-218.86 172.14c-118.23,128.81 -218.57,177.66 -338.02,340.24l-1660.41 -234.73 -135.03 -203.21c-79.59,-100.61 -256.85,-271.41 -295.05,-398.44 -46.08,-153.25 40.93,-813.1 83.67,-945.12 54.65,-4.03 361.18,79.32 474.24,101.49l501.46 110.36c8.38,2.81 21.39,6.99 31.3,12.37l-68.54 446.95 642.92 74.05 60.85 -169.5c36.38,-166.83 61.85,-402.07 27.39,-556.22 -268.72,-154.8 -657.89,-128.26 -968.16,-181.08 -187.05,-31.85 -387.32,-330.94 -503.25,-502.48 -182.38,-269.86 -43.21,-717.87 -3.36,-1078.58 15.44,-139.69 24.53,-386.4 58.94,-533.42 31.5,-134.54 157.26,-240.49 247.9,-320.91 323.58,-287.07 321.75,-309.78 773.86,-244.95 302.42,43.37 674.42,101.27 976.35,158.99 271.79,51.96 278.75,257.14 441.51,419.9 224.02,224 213.1,235.78 165.5,602.51 -24.05,185.3 -30.87,380.59 -66.51,557.08 -140.77,33.93 -715.26,-98.81 -898.05,-115.73l31.03 -488.33c-159.56,-4.58 -625.87,-157.63 -723.42,-73.57 -103.64,120.8 -84.22,504.78 -108.43,663.11 451.37,101.29 986.07,36.37 1310.16,431.68 94.15,114.86 324.46,430.32 335.61,541.26 15.57,154.72 -76.64,670.49 -99.65,892.21 286.35,-201.5 189.67,-188.47 625.13,-231.66 566.69,-56.2 1722.38,-200.89 2180.97,-165.89 -61.01,-192.72 -174.16,-293.33 -274.17,-453.07 -402.35,-642.65 -464.06,-836.78 -492.81,-1680.8l40.93 97.3c63.34,195.62 85.6,419.5 169.81,602.42l148.67 216.86c-178.69,-1241.81 -24.45,-1955.27 354.2,-3064.3 86.82,-254.28 220.07,-465.86 363.61,-693.08l57.62 -89.71c211.52,-328.93 796.2,-967.92 1189.36,-1000.97 -128.88,82.46 -353.91,262.08 -456.27,398.49 -69.75,92.93 -74.58,91.23 -164.7,165.43 -36.18,29.8 -10.89,-6.54 -73.35,68.73 -565.65,681.59 -922.43,1575.82 -1064.43,2475.43 -180.77,1145.27 72.16,2033.65 658.04,2959.69 100.97,159.58 373.69,677.79 476.65,753.75 107.68,-89.75 87.9,-97.41 158.64,-191.81 96.41,-128.63 113.92,-85.42 210.58,-185.4 488.43,-505.19 654.79,-677.25 1323.92,-1023.6 833.65,-431.51 1531.54,-566.29 2547.02,-460.73 -37.23,-238.84 -390.4,-841.38 -496.67,-1074.83 -224.26,-492.67 -543.94,-1013.27 -810.84,-1490.95 -230.66,-412.82 -450.94,-816.23 -743.77,-1160.89 -47.4,-55.78 -34.49,-46.21 -77.79,-104.7 -191.64,-258.91 -383.4,-518.65 -622.96,-725.53 -85.79,-74.09 -146.83,-95.99 -224.76,-177.31 -7.25,-7.57 -26,-30.7 -33.24,-38.21 -26.21,-27.21 -6.16,-9.81 -55.07,-52.95 -245.05,-216.14 -490.14,-351.88 -784.31,-554.48 -509.46,-350.9 -1220.91,-529.56 -1762.68,-857.76 -173.3,-105 -92.73,-70.72 -180.29,-203.37l-744.07 802.07c-277.47,294.42 -1183.95,858.79 -1594.45,1072.75 -1698.21,885.1 -3838.52,1734.41 -5744.56,837.11 -410.24,-193.12 -918.37,-549.19 -1150.52,-978.23 -83.99,-155.2 -93.31,-235.8 -157.99,-387.61 -76.54,-179.61 -559.25,-393.73 -738.63,-576.41l-256.13 -281.91c-44.9,-69.39 -66.59,-103.37 -116.12,-174.96 -73.69,-106.51 -124.61,-356.85 -254.62,-385.9l-1230.84 -162.68 -1488 -9.3 305.05 605.07c93.58,195.61 162.19,454.53 201.84,679.76 201.94,1147.41 152.19,2703.15 -619.4,3646.21 -109.47,133.79 -306.87,303.84 -535.83,366.02l159.69 94.27c57.74,20.66 127.89,35.4 188.45,53.13 407.06,119.12 827.73,200.22 1252.47,220.18 30.32,-954.15 211.62,-1944.79 395.93,-2860.55 57.32,-284.8 142.53,-547.99 203.84,-855.94 56.77,241.26 -17.65,745.8 2.42,1056 86.83,-117.65 76.31,-203.99 128.48,-320.45 27.89,-62.23 49.93,-80.89 82.14,-137.6l421.43 -767.95c-42.99,450.75 -502.05,1772.43 -621.83,2591.31 -216.27,1478.44 -199.43,3083.14 -117.1,4594.16 13.7,251.51 15.57,469.33 52.91,720.45l114 1496.44c9.94,253.7 40.77,525.75 53.67,752.95 11.52,202.96 68.95,1432.22 125.59,1524.72 309.51,275.59 1438.38,542.31 1864.41,658.42zm4369.78 -7214.03c-305.74,357.34 -664.78,217.7 -1374.09,114.64l-85.24 793.59 266.28 2.05c-24.84,338.64 -3.25,690.94 -113.53,974.67 -140.91,-127.97 -1152.04,-157.97 -1447.43,-217.75l97.71 -914.84 246.26 26.8 251.82 -2498.47 -246.12 -12.72c-0.49,-226.9 25.51,-874.54 94.5,-1021.04 249.15,-26.87 1403.02,121.74 1758.25,166.97 724.14,92.21 444.77,-88.88 872.9,407.54l102.76 114.65c261.8,347.13 114.46,550.6 41.17,1261.67 -46.98,455.84 -13.96,376.75 -201.67,556.98l-263.57 245.26zm-3069.11 268.29c-18.29,220.88 -20.58,777.74 -166.85,897.46l-265.07 242.1c-134.68,115.59 -146.58,80.65 -258.48,244.44 -441.31,-50.22 -910.23,-4.46 -1339.61,-37.72 -262.11,-20.31 -128.1,-25.2 -386.65,-292 -51.76,-53.41 -28.82,-20.84 -87.58,-90.76l-79.34 -103.47c-167.7,-239.14 4.52,-1032.14 12.64,-1636.61 5.55,-413.38 94.89,-836.09 122.24,-1269.4 -97.39,-39.82 -125.58,-17.71 -248.06,-17.71 38.95,-280.36 26.72,-906.45 145.25,-1092.46l1430.4 26.11 -83.13 1048.92c-106.67,58.8 -104.54,38.83 -241.07,56.79 -69.58,145.38 -221.77,2048.61 -224.82,2369.78 199.96,-6.75 456.28,48.51 650.71,-11.43 35.81,-192.75 30.37,-432.8 41.57,-598.18 14.49,-213.83 41.07,-385.94 57.95,-584.91 31.65,-373.07 49.92,-777.05 114.84,-1159.53 -59.45,-50.86 -18.66,-27.29 -127.96,-62.68 -3.21,-1.04 -84.56,-10.54 -81.51,-10.88l105.12 -1017.54c111.52,-32 1263.77,7.58 1424.98,38.26 34.09,153.95 -21.12,923.88 -66.96,1067.44l-255.02 24.06c-90.41,617.95 -139.85,1321.11 -193.59,1969.92z"/>
   <g clip-path="url(#id1)">
    <g>
     <polygon id="1" fill="#00306E" points="1564.48,6323.95 2884.65,5985.93 2486.75,8729.15 691.99,8330.4 "/>
     <path fill="#00306E" d="M10393.33 16386.46c1037.67,-514.83 1647.81,-1660.81 2039.28,-3129.57l-279.77 4179.47 -660.52 11.53c-214.99,-573.94 -629.85,-857.18 -1098.99,-1061.43z"/>
     <path fill="#00306E" d="M15133.45 8441.48c471.63,383.22 863.65,845.91 1074.39,1489.56l570.83 791.42c66.01,269.88 -70.36,452.9 -417.59,545.39l-84.66 295.93c-539.79,-1158.25 -940.43,-2213.54 -1142.97,-3122.3z"/>
     <g>
      <path fill="#00306E" d="M4788.59 3602.45l657.73 792.92c83.27,261.35 306.82,281.43 460.89,487.35 436.98,584.06 1060.61,1153.59 2125.63,1246.14 -1886.88,431.13 -2758.2,-304.09 -3003.91,-1757.86l-240.34 -768.55z"/>
      <path fill="#00306E" d="M14832.15 2948.27l2001.89 972.97c-2681.26,152.67 -5350.83,2677.07 -7744.81,2206.23 2326.35,-824.59 4804.3,-1920.94 5742.92,-3179.2z"/>
     </g>
    </g>
   </g>
   <path fill="none" stroke="#332C2B" stroke-width="20" stroke-miterlimit="22.9256" d="M5031.91 16935.43c938.81,255.85 3720.23,432.81 4526.11,425.08 813.47,-7.78 1655.83,-30.45 2460.74,-23.96l597.95 -5827.87c-10.46,6.24 -24.27,4.39 -30.02,21.05l-218.86 172.14c-118.23,128.81 -218.57,177.66 -338.02,340.24l-1660.41 -234.73 -135.03 -203.21c-79.59,-100.61 -256.85,-271.41 -295.05,-398.44 -46.08,-153.25 40.93,-813.1 83.67,-945.12 54.65,-4.03 361.18,79.32 474.24,101.49l501.46 110.36c8.38,2.81 21.39,6.99 31.3,12.37l-68.54 446.95 642.92 74.05 60.85 -169.5c36.38,-166.83 61.85,-402.07 27.39,-556.22 -268.72,-154.8 -657.89,-128.26 -968.16,-181.08 -187.05,-31.85 -387.32,-330.94 -503.25,-502.48 -182.38,-269.86 -43.21,-717.87 -3.36,-1078.58 15.44,-139.69 24.53,-386.4 58.94,-533.42 31.5,-134.54 157.26,-240.49 247.9,-320.91 323.58,-287.07 321.75,-309.78 773.86,-244.95 302.42,43.37 674.42,101.27 976.35,158.99 271.79,51.96 278.75,257.14 441.51,419.9 224.02,224 213.1,235.78 165.5,602.51 -24.05,185.3 -30.87,380.59 -66.51,557.08 -140.77,33.93 -715.26,-98.81 -898.05,-115.73l31.03 -488.33c-159.56,-4.58 -625.87,-157.63 -723.42,-73.57 -103.64,120.8 -84.22,504.78 -108.43,663.11 451.37,101.29 986.07,36.37 1310.16,431.68 94.15,114.86 324.46,430.32 335.61,541.26 15.57,154.72 -76.64,670.49 -99.65,892.21 286.35,-201.5 189.67,-188.47 625.13,-231.66 566.69,-56.2 1722.38,-200.89 2180.97,-165.89 -61.01,-192.72 -174.16,-293.33 -274.17,-453.07 -402.35,-642.65 -464.06,-836.78 -492.81,-1680.8l40.93 97.3c63.34,195.62 85.6,419.5 169.81,602.42l148.67 216.86c-178.69,-1241.81 -24.45,-1955.27 354.2,-3064.3 86.82,-254.28 220.07,-465.86 363.61,-693.08l57.62 -89.71c211.52,-328.93 796.2,-967.92 1189.36,-1000.97 -128.88,82.46 -353.91,262.08 -456.27,398.49 -69.75,92.93 -74.58,91.23 -164.7,165.43 -36.18,29.8 -10.89,-6.54 -73.35,68.73 -565.65,681.59 -922.43,1575.82 -1064.43,2475.43 -180.77,1145.27 72.16,2033.65 658.04,2959.69 100.97,159.58 373.69,677.79 476.65,753.75 107.68,-89.75 87.9,-97.41 158.64,-191.81 96.41,-128.63 113.92,-85.42 210.58,-185.4 488.43,-505.19 654.79,-677.25 1323.92,-1023.6 833.65,-431.51 1531.54,-566.29 2547.02,-460.73 -37.23,-238.84 -390.4,-841.38 -496.67,-1074.83 -224.26,-492.67 -543.94,-1013.27 -810.84,-1490.95 -230.66,-412.82 -450.94,-816.23 -743.77,-1160.89 -47.4,-55.78 -34.49,-46.21 -77.79,-104.7 -191.64,-258.91 -383.4,-518.65 -622.96,-725.53 -85.79,-74.09 -146.83,-95.99 -224.76,-177.31 -7.25,-7.57 -26,-30.7 -33.24,-38.21 -26.21,-27.21 -6.16,-9.81 -55.07,-52.95 -245.05,-216.14 -490.14,-351.88 -784.31,-554.48 -509.46,-350.9 -1220.91,-529.56 -1762.68,-857.76 -173.3,-105 -92.73,-70.72 -180.29,-203.37l-744.07 802.07c-277.47,294.42 -1183.95,858.79 -1594.45,1072.75 -1698.21,885.1 -3838.52,1734.41 -5744.56,837.11 -410.24,-193.12 -918.37,-549.19 -1150.52,-978.23 -83.99,-155.2 -93.31,-235.8 -157.99,-387.61 -76.54,-179.61 -559.25,-393.73 -738.63,-576.41l-256.13 -281.91c-44.9,-69.39 -66.59,-103.37 -116.12,-174.96 -73.69,-106.51 -124.61,-356.85 -254.62,-385.9l-1230.84 -162.68 -1488 -9.3 305.05 605.07c93.58,195.61 162.19,454.53 201.84,679.76 201.94,1147.41 152.19,2703.15 -619.4,3646.21 -109.47,133.79 -306.87,303.84 -535.83,366.02l159.69 94.27c57.74,20.66 127.89,35.4 188.45,53.13 407.06,119.12 827.73,200.22 1252.47,220.18 30.32,-954.15 211.62,-1944.79 395.93,-2860.55 57.32,-284.8 142.53,-547.99 203.84,-855.94 56.77,241.26 -17.65,745.8 2.42,1056 86.83,-117.65 76.31,-203.99 128.48,-320.45 27.89,-62.23 49.93,-80.89 82.14,-137.6l421.43 -767.95c-42.99,450.75 -502.05,1772.43 -621.83,2591.31 -216.27,1478.44 -199.43,3083.14 -117.1,4594.16 13.7,251.51 15.57,469.33 52.91,720.45l114 1496.44c9.94,253.7 40.77,525.75 53.67,752.95 11.52,202.96 68.95,1432.22 125.59,1524.72 309.51,275.59 1438.38,542.31 1864.41,658.42zm4369.78 -7214.03c-305.74,357.34 -664.78,217.7 -1374.09,114.64l-85.24 793.59 266.28 2.05c-24.84,338.64 -3.25,690.94 -113.53,974.67 -140.91,-127.97 -1152.04,-157.97 -1447.43,-217.75l97.71 -914.84 246.26 26.8 251.82 -2498.47 -246.12 -12.72c-0.49,-226.9 25.51,-874.54 94.5,-1021.04 249.15,-26.87 1403.02,121.74 1758.25,166.97 724.14,92.21 444.77,-88.88 872.9,407.54l102.76 114.65c261.8,347.13 114.46,550.6 41.17,1261.67 -46.98,455.84 -13.96,376.75 -201.67,556.98l-263.57 245.26zm-3069.11 268.29c-18.29,220.88 -20.58,777.74 -166.85,897.46l-265.07 242.1c-134.68,115.59 -146.58,80.65 -258.48,244.44 -441.31,-50.22 -910.23,-4.46 -1339.61,-37.72 -262.11,-20.31 -128.1,-25.2 -386.65,-292 -51.76,-53.41 -28.82,-20.84 -87.58,-90.76l-79.34 -103.47c-167.7,-239.14 4.52,-1032.14 12.64,-1636.61 5.55,-413.38 94.89,-836.09 122.24,-1269.4 -97.39,-39.82 -125.58,-17.71 -248.06,-17.71 38.95,-280.36 26.72,-906.45 145.25,-1092.46l1430.4 26.11 -83.13 1048.92c-106.67,58.8 -104.54,38.83 -241.07,56.79 -69.58,145.38 -221.77,2048.61 -224.82,2369.78 199.96,-6.75 456.28,48.51 650.71,-11.43 35.81,-192.75 30.37,-432.8 41.57,-598.18 14.49,-213.83 41.07,-385.94 57.95,-584.91 31.65,-373.07 49.92,-777.05 114.84,-1159.53 -59.45,-50.86 -18.66,-27.29 -127.96,-62.68 -3.21,-1.04 -84.56,-10.54 -81.51,-10.88l105.12 -1017.54c111.52,-32 1263.77,7.58 1424.98,38.26 34.09,153.95 -21.12,923.88 -66.96,1067.44l-255.02 24.06c-90.41,617.95 -139.85,1321.11 -193.59,1969.92z"/>
   <path fill="#023E8A" stroke="#332C2B" stroke-width="20" stroke-miterlimit="22.9256" d="M8137.19 8840.59l484.95 72.96c139.81,-12.68 67.14,14.7 141.76,-56.02l90.31 -726.5 -657.47 -96.73 -59.55 806.29z"/>
   <polygon fill="#261403" points="2261.27,-2932.28 2653.71,-2932.84 2918.12,-2597.56 2240.79,-2674.29 "/>
   <path fill="#261403" d="M8302.63 -2607.78c825.82,185.79 1580.95,438.77 2124.33,892.89l401.23 -89.97 -84.35 -39.4c-544.59,-708.27 -1153.17,-729.68 -1863.97,-870.66l-577.24 107.14z"/>
   <path fill="#261403" d="M10956.25 -1884.51c703.95,-37.03 1242.73,-365.13 1864.09,-428.62 9.41,75.03 -42.83,138.41 -182.87,185.21 -320.66,533.99 -983.46,350.96 -1475.2,641.53l-1466.52 60.38c16.55,-186.11 232.26,-279.16 626.37,-288.88l634.13 -169.62z"/>
   <path fill="#261403" d="M11238.49 -414.37c703.95,37.03 1242.73,365.13 1864.09,428.62 9.41,-75.03 -42.83,-138.41 -182.87,-185.21 -320.66,-533.99 -983.46,-350.96 -1475.2,-641.53l-1466.52 -60.38c16.55,186.11 232.26,279.16 626.37,288.88l634.13 169.62z"/>
  </g>
 </g>
</svg>
