<?xml version="1.0" encoding="UTF-8"?>
<!DOCTYPE svg PUBLIC "-//W3C//DTD SVG 1.1//EN" "http://www.w3.org/Graphics/SVG/1.1/DTD/svg11.dtd">
<!-- Creator: CorelDRAW 2019 (64-Bit) -->
<svg xmlns="http://www.w3.org/2000/svg" xml:space="preserve" width="210mm" height="210mm" version="1.1" shape-rendering="geometricPrecision" text-rendering="geometricPrecision" image-rendering="optimizeQuality" fill-rule="evenodd" clip-rule="evenodd"
viewBox="0 0 21000 21000"
 xmlns:xlink="http://www.w3.org/1999/xlink">
 <defs>
    <linearGradient id="id0" gradientUnits="userSpaceOnUse" x1="4082.17" y1="15533.63" x2="10476.35" y2="7613.97">
     <stop offset="0" stop-opacity="1" stop-color="#FFD509"/>
     <stop offset="1" stop-opacity="1" stop-color="#FFC501"/>
    </linearGradient>
    <linearGradient id="id1" gradientUnits="userSpaceOnUse" x1="5354.18" y1="23687.84" x2="6538.06" y2="17954.79">
     <stop offset="0" stop-opacity="1" stop-color="#FFD509"/>
     <stop offset="1" stop-opacity="1" stop-color="#FFC501"/>
    </linearGradient>
    <linearGradient id="id2" gradientUnits="userSpaceOnUse" x1="10759.79" y1="12038.13" x2="7622.46" y2="22761.89">
     <stop offset="0" stop-opacity="1" stop-color="#FFD509"/>
     <stop offset="1" stop-opacity="1" stop-color="#FFC501"/>
    </linearGradient>
 </defs>
 <g id="Layer_x0020_1">
  <metadata id="CorelCorpID_0Corel-Layer"/>
  <g id="_2328104971216">
   <path fill="url(#id0)" d="M12052.05 19540.65c-6509.74,-5644.75 -10871.17,-12490.03 -12032.58,-21123.56l0 10907.78c2546.84,4691.76 5799.82,8296.09 12032.58,10215.78z"/>
   <path fill="url(#id1)" d="M19.47 14083.89c2408.5,3700.25 6574.76,6523.67 11362.44,8513.28l-4092.3 0c-2656.53,-817.8 -5065.85,-2140.79 -7270.14,-3882.73l0 -4630.55z"/>
   <path fill="#023E8A" d="M20966.26 22597.17c-3218.45,-757.07 -6261.15,-1827.97 -9153.89,-3166.66 -2628.12,-1216.25 -5132.46,-2653.54 -7532.33,-4277.38 1904.63,2336.28 4636.06,4753.44 10162.53,7444.04l6523.69 0z"/>
   <path fill="url(#id2)" d="M19.47 14172.37l0 -5289.92c3065.07,5852.13 8093.62,10809.51 14806.52,13714.72l-3442.49 0c-5100.44,-2028.65 -8899.86,-4774.24 -11364.03,-8424.8z"/>
   <path fill="#023E8A" d="M19.47 22597.17l0 -3882.73c2076.68,1700.26 4530.61,2958.72 7270.14,3882.73l-7270.14 0z"/>
  </g>
 </g>
</svg>
