<?xml version="1.0" encoding="UTF-8"?>
<!DOCTYPE svg PUBLIC "-//W3C//DTD SVG 1.1//EN" "http://www.w3.org/Graphics/SVG/1.1/DTD/svg11.dtd">
<!-- Creator: CorelDRAW 2019 (64-Bit) -->
<svg xmlns="http://www.w3.org/2000/svg" xml:space="preserve" width="210mm" height="210mm" version="1.1" shape-rendering="geometricPrecision" text-rendering="geometricPrecision" image-rendering="optimizeQuality" fill-rule="evenodd" clip-rule="evenodd"
viewBox="0 0 21000 21000"
 xmlns:xlink="http://www.w3.org/1999/xlink">
 <g id="Layer_x0020_1">
  <metadata id="CorelCorpID_0Corel-Layer"/>
  <g id="_2328506205712">
   <g>
    <polygon fill="white" points="-8379.96,23732.7 -4605.39,27310.38 -11811.25,27310.38 -17387.29,23732.7 "/>
    <polygon fill="white" points="-17387.29,23732.7 -11811.25,27310.38 -13633.45,33794.04 -19665.04,31837.27 "/>
    <polygon fill="white" points="-33238.12,23732.7 -24491.92,27310.38 -26356.5,33794.04 -35568.85,31837.27 "/>
    <polygon fill="white" points="-30802.25,23732.7 -22543.22,27310.38 -24491.92,27310.38 -33238.12,23732.7 "/>
    <polygon fill="white" points="-19665.04,31837.27 -13633.45,33794.04 -24365.42,33794.04 -33080,31837.27 "/>
    <polygon fill="white" points="-35568.85,31837.27 -26356.5,33794.04 -37096,33794.04 -48993.22,31837.27 "/>
    <polygon fill="white" points="-46662.5,23732.7 -35231.42,27310.38 -39625.6,27310.38 -52155.22,23732.7 "/>
    <polygon fill="white" points="-41952.48,7311.68 -31463.41,14173.57 -35854.06,14173.57 -47440.8,7311.68 "/>
    <polygon fill="white" points="21125.88,-12957.23 18999.28,-2041.55 17901.79,2402.12 19754.01,-7402.64 "/>
    <polygon fill="white" points="32040.99,-4242.06 27731.37,4930.58 30108.44,-2041.55 35012.33,-12957.23 "/>
    <polygon fill="white" points="46241.64,-5084.04 39091.89,4257 39091.89,1668.39 46241.64,-8319.8 "/>
    <polygon fill="white" points="68967.5,8776.23 57272.58,15345.21 57155.41,15409.16 57036.87,15470.85 56917.02,15530.27 68523.05,9007.56 68672.86,8933.28 68821.04,8856.17 "/>
    <polygon fill="white" points="65221.22,31831.5 54275.55,33789.42 54033.15,33832.76 53789.47,33870.05 53544.71,33901.38 53299.13,33926.84 53052.96,33946.5 52806.43,33960.44 52559.79,33968.74 52313.27,33971.5 62768.36,32059.09 63076.52,32055.65 63384.82,32045.27 63692.98,32027.84 64000.69,32003.27 64307.66,31971.45 64613.61,31932.28 64918.22,31885.67 "/>
    <polygon fill="white" points="62768.36,32059.09 52313.27,33971.5 51964.81,33965.37 51617.86,33947.04 51272.8,33916.62 50930.03,33874.22 50589.95,33819.94 50252.96,33753.9 49919.45,33676.17 49589.83,33586.89 49264.47,33486.14 48943.79,33374.03 48628.19,33250.68 48318.04,33116.18 48013.77,32970.64 47715.75,32814.16 47424.39,32646.86 47140.09,32468.82 46863.24,32280.16 46594.24,32080.98 46333.49,31871.4 46081.38,31651.5 45838.31,31421.41 45604.67,31181.21 45380.87,30931.02 45167.3,30670.94 44964.35,30401.09 44772.43,30121.54 44591.94,29832.43 44423.26,29533.85 44266.79,29225.9 44122.94,28908.7 43992.1,28582.34 43874.66,28246.92 52220.1,24903.37 52366.9,25322.64 52530.45,25730.59 52710.27,26127.1 52905.85,26512.03 53116.7,26885.26 53342.32,27246.65 53582.22,27596.08 53835.9,27933.4 54102.86,28258.5 54382.62,28571.23 54674.66,28871.48 54978.5,29159.1 55293.64,29433.97 55619.58,29695.95 55955.83,29944.92 56301.89,30180.74 56657.27,30403.29 57021.47,30612.42 57393.99,30808.02 57774.33,30989.94 58162.01,31158.07 58556.52,31312.26 58957.37,31452.39 59364.06,31578.33 59776.09,31689.93 60192.98,31787.09 60614.22,31869.65 61039.32,31937.5 61467.78,31990.5 61899.1,32028.52 62332.79,32051.43 "/>
    <polygon fill="white" points="52220.1,24903.37 43874.66,28246.92 43546.11,27237.21 51809.41,23641.23 "/>
    <polygon fill="white" points="54531.36,21270.87 45723.67,25340.92 46189.9,25122.15 55114.15,20997.41 "/>
    <polygon fill="white" points="55114.15,20997.41 46189.9,25122.15 46177.44,25110.49 46165.02,25098.79 46152.63,25087.07 46140.28,25075.32 46127.96,25063.54 46115.68,25051.74 46103.43,25039.9 46091.22,25028.04 46079.03,25016.15 46066.89,25004.23 46054.79,24992.28 46042.71,24980.3 46030.67,24968.3 46018.67,24956.26 46006.7,24944.2 45994.76,24932.11 54870.23,20759.86 54885.15,20774.97 54900.11,20790.05 54915.11,20805.09 54930.16,20820.1 54945.26,20835.07 54960.39,20850.01 54975.57,20864.91 54990.8,20879.77 55006.07,20894.6 55021.38,20909.39 55036.73,20924.15 55052.13,20938.87 55067.57,20953.56 55083.05,20968.21 55098.58,20982.83 "/>
    <polygon fill="white" points="45480.55,31752.62 38483.02,33726.32 31103.91,33726.32 36256.67,31752.62 "/>
    <polygon fill="white" points="36256.67,31752.62 31103.91,33726.32 31103.91,30991.3 36256.67,28333.84 "/>
    <polygon fill="white" points="32712.23,31068.14 28268.36,33178.74 28057.28,33272.11 27842.76,33359.98 27624.87,33442.25 27403.71,33518.86 27179.36,33589.74 26951.92,33654.83 26721.47,33714.06 26488.11,33767.34 26251.91,33814.62 26012.98,33855.82 25771.39,33890.87 25527.23,33919.71 25280.61,33942.26 25031.59,33958.46 24780.28,33968.22 24526.76,33971.5 28035.23,32059.09 28352.13,32055 28666.27,32042.79 28977.54,32022.55 29285.82,31994.36 29591.01,31958.31 29893,31914.5 30191.67,31863 30486.91,31803.9 30778.62,31737.29 31066.68,31663.26 31350.98,31581.9 31631.42,31493.29 31907.87,31397.53 32180.23,31294.69 32448.38,31184.86 "/>
    <polygon fill="white" points="28035.23,32059.09 24526.76,33971.5 24153.62,33964.39 23785.37,33943.23 23422.3,33908.23 23064.7,33859.62 22712.84,33797.62 22367.03,33722.47 22027.53,33634.38 21694.63,33533.56 21368.63,33420.26 21049.79,33294.7 20738.42,33157.1 20434.78,33007.67 20139.17,32846.66 19851.87,32674.27 19573.18,32490.74 19303.35,32296.3 19042.7,32091.15 18791.5,31875.54 18550.02,31649.68 18318.57,31413.79 18097.42,31168.11 17886.86,30912.85 17687.16,30648.24 17498.63,30374.5 17321.54,30091.86 17156.17,29800.55 17002.82,29500.78 16861.75,29192.78 16733.27,28876.78 16617.66,28553 16515.19,28221.66 16426.15,27882.98 17909.47,24448.45 18020.76,24871.79 18148.85,25285.97 18293.37,25690.7 18453.97,26085.7 18630.3,26470.7 18821.99,26845.41 19028.7,27209.55 19250.07,27562.85 19485.73,27905.02 19735.35,28235.78 19998.55,28554.86 20274.99,28861.96 20564.3,29156.82 20866.15,29439.15 21180.15,29708.66 21505.97,29965.09 21843.25,30208.15 22191.62,30437.56 22550.74,30653.04 22920.25,30854.31 23299.8,31041.09 23689.02,31213.09 24087.56,31370.05 24495.07,31511.67 24911.19,31637.69 25335.56,31747.81 25767.83,31841.75 26207.65,31919.25 26654.65,31980.01 27108.49,32023.76 27568.8,32050.21 "/>
    <polygon fill="white" points="17909.47,24448.45 16426.15,27882.98 11513.76,27882.98 11768.98,24448.45 "/>
    <polygon fill="white" points="11768.98,31752.62 11513.76,33726.32 -1483.93,33726.32 -4478.14,31752.62 "/>
    <polygon fill="white" points="-7145.4,10919.31 -3617.74,17059.67 -3752.44,16859.1 -3881.42,16809.22 -4003.54,16922.34 -4117.66,17210.81 -4222.64,17686.94 -4317.33,18363.08 -4400.58,19251.55 -4471.26,20364.68 -4528.23,21714.79 -4570.33,23314.23 -4596.44,25175.32 -4605.39,27310.38 -8379.96,23732.7 -8368.77,21063.87 -8336.14,18737.51 -8283.51,16738.21 -8212.3,15050.57 -8123.95,13659.16 -8019.88,12548.57 -7901.52,11703.4 -7770.3,11108.23 -7627.65,10747.65 -7475,10606.24 -7313.77,10668.6 "/>
    <polygon fill="white" points="6165.62,7460.69 7031.07,14292.78 6895.02,13687.94 5995.55,6704.65 "/>
    <polygon fill="white" points="5995.55,6704.65 6895.02,13687.94 6758.95,14292.78 5825.47,7460.69 "/>
    <polygon fill="white" points="51103.47,23986.4 42981.35,27513.34 42864.59,27563.22 42746.62,27611.31 42627.44,27657.59 42507.08,27702.06 42385.57,27744.72 42262.92,27785.56 42139.15,27824.56 42014.3,27861.72 41888.36,27897.05 41761.38,27930.51 41633.36,27962.13 41504.34,27991.88 41374.32,28019.76 41243.34,28045.76 41111.41,28069.87 40978.55,28092.1 40844.79,28112.43 40710.15,28130.86 40574.63,28147.37 40438.28,28161.97 40301.11,28174.64 40163.14,28185.38 40024.39,28194.18 39884.87,28201.04 39744.63,28205.94 39603.67,28208.9 39462.01,28209.88 46704.29,24857.07 46881.36,24855.84 47057.57,24852.15 47232.87,24846.02 47407.26,24837.45 47580.7,24826.44 47753.17,24813.02 47924.63,24797.18 48095.07,24778.93 48264.46,24758.29 48432.76,24735.26 48599.97,24709.85 48766.04,24682.06 48930.95,24651.92 49094.68,24619.42 49257.2,24584.57 49418.48,24547.38 49578.5,24507.86 49737.23,24466.03 49894.65,24421.87 50050.72,24375.42 50205.43,24326.67 50358.74,24275.62 50510.63,24222.3 50661.08,24166.71 50810.05,24108.86 50957.52,24048.75 "/>
    <polygon fill="white" points="46704.29,24857.07 39462.01,28209.88 38483.02,28209.88 45480.55,24857.07 "/>
   </g>
   <path fill="white" d="M-8379.96 23732.7l-9007.33 0 -2277.75 8104.57 -13414.96 0 2277.75 -8104.57 -2435.87 0 -2330.73 8104.57 -13424.37 0 2330.72 -8104.57 -5492.72 0 0 -12151.55 8969.34 0 1233.4 -4269.47 -5488.32 0 0 -12151.55 8970.45 0 2330.73 -8051.6c11008.94,0 15968.38,0 27021.08,0l-16.24 -65.76 9386.51 0 800.61 3410.49 756.49 -3410.49 8606.47 0 756.49 3410.51 800.62 -3410.51 9153.47 0 -1371.87 5554.59c1321.44,-762.75 2870.11,-1196.81 4558.23,-1196.81 3320.46,0 6184.33,1727.75 7728.75,4357.39l2971.34 -8715.17 8545.03 0 2684.28 7873.19 0 -3235.76 7790.12 0c493.41,-94.11 1012.98,-139.83 1554,-139.83l3960.97 0 0 1022.69c1308.23,-741.44 2835.62,-1162.51 4498.27,-1162.51 4989.44,0 8947.95,3901.11 8947.95,8901.35 0,726.43 -67.62,1492.33 -298.24,2184.15l-61.28 183.84 507.53 241.08 -952.83 2309.88c-721.61,1749.33 -2058.52,3009.49 -3665.08,3786.71 1661.72,1110.88 2987.34,2699.45 3717.18,4706.52l822.19 2261.03 -3637.38 1706.76c1846.47,1379.22 3024.77,3352.51 3024.77,6049.35 0,1518.68 -391.6,2987.2 -1206.83,4273.51 -1829.35,2886.45 -5189.4,4054.36 -8474.62,4054.36 -4654.26,0 -9073.56,-2623.69 -10548.26,-7155.72l-410.69 -1262.14c-1462.29,795.28 -3211.81,1215.84 -5105.12,1215.84l-1223.74 0 0 6895.55 -9223.88 0 0 -3418.78c-1884.53,2324.47 -4826.84,3725.25 -8221.44,3725.25 -5006.65,0 -9029.45,-3047.11 -10125.76,-7610.64l-6140.49 0 0 7304.17 -16247.12 0c0,-7638.42 -3901.82,-38368.79 -3901.82,-8019.92zm14545.58 -16272.01l-170.07 -756.04 -170.08 756.04 340.15 0zm48704.61 13299.17c-106.68,175.56 -219.72,345.93 -338.87,511.01l582.79 -273.46c-83.15,-77.67 -164.48,-156.85 -243.92,-237.55z"/>
   <g>
    <polygon fill="#00306E" fill-rule="nonzero" points="14058.62,-10324.57 11099.05,2282.71 8302.61,-10324.57 3921.52,-10324.57 1125.08,2282.71 -1834.48,-10324.57 -5772.8,-10324.57 -1484.93,7036.66 3222.41,7036.66 5995.55,-5290.98 8768.68,7036.66 13476.03,7036.66 17763.9,-10324.57 "/>
    <path id="1" fill="#00306E" fill-rule="nonzero" d="M30627.53 301.9c0,-3518.85 -2749.83,-6268.69 -6315.29,-6268.69 -3635.38,0 -6431.82,2819.75 -6431.82,6618.24 0,3681.98 2633.32,6664.85 6664.85,6664.85 2610.01,0 4707.34,-1235.09 5476.37,-3099.38l-2796.45 -1328.31c-489.37,862.23 -1398.22,1398.22 -2633.31,1398.22 -1724.47,0 -2866.35,-1025.36 -3076.08,-2633.32l8948.6 0c116.52,-349.55 163.13,-838.93 163.13,-1351.61zm-9041.82 -1211.79c349.55,-1468.13 1351.61,-2260.46 2726.53,-2260.46 1444.82,0 2470.19,908.85 2610.01,2260.46l-5336.54 0z"/>
    <path id="2" fill="#00306E" fill-rule="nonzero" d="M41673.47 -10324.57l-4777.25 0 -5919.13 17361.23 3821.8 0 1165.18 -3542.16 6641.55 0 1165.18 3542.16 3821.8 0 -5919.13 -17361.23zm-4684.03 10673.08l2307.06 -7037.71 2283.76 7037.71 -4590.82 0z"/>
    <path id="3" fill="#00306E" fill-rule="nonzero" d="M55585.76 -5826.97c-1561.35,0 -2796.44,466.08 -3448.94,2050.73l0 -1910.9 -3262.52 0 0 12723.8 3495.55 0 0 -6851.28c0,-1887.6 1165.19,-2982.87 2866.36,-2982.87l1677.86 0 0 -3029.48 -1328.31 0z"/>
    <path id="4" fill="#00306E" fill-rule="nonzero" d="M70360.29 301.9c0,-3518.85 -2749.83,-6268.69 -6315.29,-6268.69 -3635.38,0 -6431.82,2819.75 -6431.82,6618.24 0,3681.98 2633.32,6664.85 6664.85,6664.85 2610.01,0 4707.34,-1235.09 5476.37,-3099.38l-2796.45 -1328.31c-489.37,862.23 -1398.22,1398.22 -2633.31,1398.22 -1724.47,0 -2866.35,-1025.36 -3076.08,-2633.32l8948.6 0c116.52,-349.55 163.13,-838.93 163.13,-1351.61zm-9041.82 -1211.79c349.55,-1468.13 1351.61,-2260.46 2726.53,-2260.46 1444.82,0 2470.19,908.85 2610.01,2260.46l-5336.54 0z"/>
    <polygon fill="#00306E" fill-rule="nonzero" points="-1845.48,29119.96 2113.08,29119.96 2113.08,10093.35 -1845.48,10093.35 "/>
    <polygon id="1" fill="#00306E" fill-rule="nonzero" points="5177.76,29119.96 9136.32,29119.96 9136.32,21815.79 16925.74,21815.79 16925.74,18368.01 9136.32,18368.01 9136.32,13541.13 18202.69,13541.13 18202.69,10093.35 5177.76,10093.35 "/>
    <path id="2" fill="#00306E" fill-rule="nonzero" d="M31866.09 10093.35l0 11799.05c0,2375.14 -1532.34,3958.56 -3830.86,3958.56 -2298.52,0 -3830.86,-1583.42 -3830.86,-3958.56l0 -11799.05 -3958.56 0 0 11799.05c0,4265.03 3115.77,7534.03 7789.42,7534.03 4673.65,0 7789.42,-3269 7789.42,-7534.03l0 -11799.05 -3958.56 0z"/>
    <path id="3" fill="#00306E" fill-rule="nonzero" d="M38889.33 29119.96l3958.56 0 0 -6895.55 3856.4 0c3881.94,0 6742.31,-2145.28 6742.31,-6052.76 0,-3984.09 -2809.29,-6078.3 -6742.31,-6078.3l-7814.96 0 0 19026.61zm3958.56 -10343.32l0 -5235.51 3881.94 0c1660.04,0 2758.22,1047.1 2758.22,2630.52 0,1557.88 -1098.18,2604.99 -2758.22,2604.99l-3881.94 0z"/>
    <path id="4" fill="#00306E" fill-rule="nonzero" d="M62768.36 29426.43c4239.49,0 7048.79,-2272.98 7048.79,-5695.21 0,-2604.99 -1608.96,-4316.11 -4801.35,-5312.13l-3779.78 -1174.8c-1225.88,-383.08 -1889.89,-1047.1 -1889.89,-1940.97 0,-1174.79 1149.26,-2068.66 2885.91,-2068.66 2043.13,0 3575.47,1123.72 4213.95,2936.99l3320.08 -1557.88c-1021.56,-2809.3 -3881.94,-4826.89 -7534.03,-4826.89 -4111.79,0 -6844.47,2272.98 -6844.47,5669.68 0,2528.37 1532.35,4367.18 4775.81,5388.74l3881.94 1225.88c1123.72,357.54 1813.27,893.86 1813.27,1889.89 0,1123.72 -1149.26,2017.58 -3090.23,2017.58 -1889.89,0 -3805.32,-1225.87 -4724.72,-3447.77l-3320.08 1557.88c1047.1,3217.93 4265.02,5337.67 8044.8,5337.67z"/>
    <path fill="#00306E" fill-rule="nonzero" d="M-45496.76 29204.61l7945.65 0 2330.73 -8104.57 7892.68 0 -2277.75 8104.57 7945.65 0 2277.75 -8104.57 8369.43 0 0 -6886.23 -6356.53 0 2701.53 -9534.79 8369.42 0 0 -6886.23 -6356.52 0 2277.75 -8051.6 -7945.65 0 -2277.76 8051.6 -7945.65 0 2330.72 -8051.6 -7945.65 0 -2330.73 8051.6 -8316.45 0 0 6886.23 6356.52 0 -2754.49 9534.79 -8316.45 0 0 6886.23 6356.52 0 -2330.72 8104.57zm12236.31 -14990.8l2754.49 -9534.79 7892.68 0 -2701.52 9534.79 -7945.65 0z"/>
   </g>
  </g>
 </g>
</svg>
