<?xml version="1.0" encoding="UTF-8"?>
<!DOCTYPE svg PUBLIC "-//W3C//DTD SVG 1.1//EN" "http://www.w3.org/Graphics/SVG/1.1/DTD/svg11.dtd">
<!-- Creator: CorelDRAW 2019 -->
<svg xmlns="http://www.w3.org/2000/svg" xml:space="preserve" width="297mm" height="210mm" version="1.1" style="shape-rendering:geometricPrecision; text-rendering:geometricPrecision; image-rendering:optimizeQuality; fill-rule:evenodd; clip-rule:evenodd"
viewBox="0 0 29700 21000"
 xmlns:xlink="http://www.w3.org/1999/xlink"
 xmlns:xodm="http://www.corel.com/coreldraw/odm/2003">
 <defs>
  <style type="text/css">
   <![CDATA[
    .fil0 {fill:white}
    .fil1 {fill:#00306E;fill-rule:nonzero}
   ]]>
  </style>
 </defs>
 <g id="Layer_x0020_1">
  <metadata id="CorelCorpID_0Corel-Layer"/>
  <g id="_2328506205712">
   <g>
    <polygon class="fil0" points="11005.82,13200.66 11774.55,13929.29 10307,13929.29 9171.38,13200.66 "/>
    <polygon class="fil0" points="9171.38,13200.66 10307,13929.29 9935.89,15249.75 8707.5,14851.24 "/>
    <polygon class="fil0" points="5943.2,13200.66 7724.45,13929.29 7344.71,15249.75 5468.52,14851.24 "/>
    <polygon class="fil0" points="6439.29,13200.66 8121.32,13929.29 7724.45,13929.29 5943.2,13200.66 "/>
    <polygon class="fil0" points="8707.5,14851.24 9935.89,15249.75 7750.21,15249.75 5975.4,14851.24 "/>
    <polygon class="fil0" points="5468.52,14851.24 7344.71,15249.75 5157.5,15249.75 2734.51,14851.24 "/>
    <polygon class="fil0" points="3209.18,13200.66 5537.24,13929.29 4642.32,13929.29 2090.53,13200.66 "/>
    <polygon class="fil0" points="4168.43,9856.34 6304.63,11253.84 5410.43,11253.84 3050.67,9856.34 "/>
    <polygon class="fil0" points="17014.99,5728.37 16581.89,7951.46 16358.37,8856.46 16735.6,6859.62 "/>
    <polygon class="fil0" points="19237.97,7503.3 18360.27,9371.41 18844.39,7951.46 19843.11,5728.37 "/>
    <polygon class="fil0" points="22130.08,7331.83 20673.96,9234.23 20673.96,8707.03 22130.08,6672.83 "/>
    <polygon class="fil0" points="26758.44,10154.61 24376.65,11492.46 24352.78,11505.48 24328.64,11518.04 24304.23,11530.14 26667.92,10201.73 26698.43,10186.6 26728.61,10170.89 "/>
    <polygon class="fil0" points="25995.47,14850.06 23766.27,15248.81 23716.9,15257.64 23667.28,15265.23 23617.43,15271.61 23567.41,15276.8 23517.28,15280.8 23467.07,15283.64 23416.84,15285.33 23366.63,15285.89 25495.92,14896.41 25558.68,14895.71 25621.47,14893.6 25684.23,14890.05 25746.9,14885.04 25809.41,14878.56 25871.72,14870.59 25933.76,14861.09 "/>
    <polygon class="fil0" points="25495.92,14896.41 23366.63,15285.89 23295.66,15284.65 23225,15280.91 23154.73,15274.72 23084.92,15266.08 23015.66,15255.03 22947.03,15241.58 22879.11,15225.75 22811.97,15207.56 22745.71,15187.05 22680.4,15164.21 22616.13,15139.09 22552.96,15111.7 22490.99,15082.06 22430.3,15050.19 22370.96,15016.12 22313.06,14979.86 22256.68,14941.44 22201.89,14900.87 22148.79,14858.19 22097.44,14813.4 22047.94,14766.54 22000.36,14717.62 21954.78,14666.67 21911.28,14613.7 21869.95,14558.74 21830.86,14501.81 21794.1,14442.93 21759.75,14382.12 21727.88,14319.4 21698.59,14254.8 21671.94,14188.34 21648.02,14120.02 23347.66,13439.07 23377.55,13524.46 23410.86,13607.55 23447.49,13688.3 23487.32,13766.7 23530.26,13842.71 23576.21,13916.31 23625.07,13987.47 23676.73,14056.17 23731.1,14122.38 23788.08,14186.07 23847.55,14247.22 23909.43,14305.8 23973.62,14361.78 24040,14415.13 24108.48,14465.84 24178.96,14513.87 24251.33,14559.19 24325.51,14601.78 24401.37,14641.62 24478.83,14678.67 24557.79,14712.91 24638.14,14744.31 24719.77,14772.85 24802.6,14798.5 24886.51,14821.23 24971.42,14841.02 25057.21,14857.83 25143.78,14871.65 25231.04,14882.44 25318.89,14890.19 25407.21,14894.85 "/>
    <polygon class="fil0" points="23347.66,13439.07 21648.02,14120.02 21581.11,13914.39 23264.02,13182.03 "/>
    <polygon class="fil0" points="23818.37,12699.28 22024.59,13528.19 22119.54,13483.63 23937.06,12643.59 "/>
    <polygon class="fil0" points="23937.06,12643.59 22119.54,13483.63 22117.01,13481.26 22114.48,13478.87 22111.95,13476.49 22109.44,13474.09 22106.93,13471.7 22104.43,13469.29 22101.93,13466.88 22099.45,13464.47 22096.96,13462.04 22094.49,13459.62 22092.03,13457.18 22089.57,13454.74 22087.11,13452.3 22084.67,13449.85 22082.23,13447.39 22079.8,13444.93 23887.38,12595.21 23890.42,12598.28 23893.47,12601.35 23896.52,12604.42 23899.59,12607.47 23902.66,12610.52 23905.75,12613.57 23908.84,12616.6 23911.94,12619.63 23915.05,12622.65 23918.17,12625.66 23921.29,12628.67 23924.43,12631.66 23927.57,12634.65 23930.73,12637.64 23933.89,12640.62 "/>
    <polygon class="fil0" points="21975.08,14834 20549.96,15235.96 19047.12,15235.96 20096.54,14834 "/>
    <polygon class="fil0" points="20096.54,14834 19047.12,15235.96 19047.12,14678.95 20096.54,14137.73 "/>
    <polygon class="fil0" points="19374.68,14694.59 18469.63,15124.44 18426.65,15143.46 18382.96,15161.35 18338.58,15178.11 18293.54,15193.71 18247.85,15208.14 18201.53,15221.4 18154.59,15233.46 18107.07,15244.32 18058.96,15253.94 18010.3,15262.33 17961.1,15269.47 17911.37,15275.35 17861.15,15279.94 17810.43,15283.24 17759.25,15285.23 17707.62,15285.89 18422.16,14896.41 18486.7,14895.58 18550.67,14893.09 18614.07,14888.97 18676.85,14883.23 18739.01,14875.89 18800.51,14866.96 18861.34,14856.48 18921.47,14844.44 18980.88,14830.87 19039.54,14815.8 19097.44,14799.23 19154.56,14781.18 19210.86,14761.68 19266.33,14740.73 19320.94,14718.37 "/>
    <polygon class="fil0" points="18422.16,14896.41 17707.62,15285.89 17631.62,15284.45 17556.63,15280.14 17482.68,15273.01 17409.85,15263.11 17338.19,15250.48 17267.77,15235.18 17198.62,15217.24 17130.83,15196.7 17064.43,15173.63 16999.5,15148.06 16936.08,15120.03 16874.24,15089.6 16814.04,15056.81 16755.53,15021.7 16698.77,14984.32 16643.82,14944.72 16590.73,14902.94 16539.57,14859.03 16490.39,14813.03 16443.26,14764.99 16398.22,14714.95 16355.33,14662.97 16314.66,14609.08 16276.27,14553.33 16240.2,14495.77 16206.52,14436.44 16175.29,14375.39 16146.56,14312.66 16120.39,14248.3 16096.85,14182.36 16075.98,14114.88 16057.84,14045.9 16359.94,13346.43 16382.6,13432.64 16408.69,13517 16438.12,13599.42 16470.83,13679.87 16506.74,13758.28 16545.78,13834.59 16587.88,13908.75 16632.97,13980.71 16680.96,14050.39 16731.8,14117.75 16785.4,14182.74 16841.7,14245.28 16900.62,14305.33 16962.1,14362.83 17026.05,14417.72 17092.4,14469.95 17161.09,14519.45 17232.04,14566.17 17305.18,14610.06 17380.44,14651.05 17457.74,14689.09 17537,14724.12 17618.17,14756.08 17701.16,14784.92 17785.91,14810.59 17872.34,14833.02 17960.38,14852.15 18049.95,14867.93 18140.99,14880.31 18233.41,14889.22 18327.16,14894.6 "/>
    <polygon class="fil0" points="16359.94,13346.43 16057.84,14045.9 15057.38,14045.9 15109.36,13346.43 "/>
    <polygon class="fil0" points="15109.36,14834 15057.38,15235.96 12410.27,15235.96 11800.47,14834 "/>
    <polygon class="fil0" points="11257.25,10591.07 11975.7,11841.62 11948.26,11800.78 11922,11790.62 11897.12,11813.65 11873.88,11872.4 11852.5,11969.37 11833.22,12107.08 11816.26,12288.02 11801.87,12514.72 11790.27,12789.69 11781.69,13115.43 11776.37,13494.46 11774.55,13929.29 11005.82,13200.66 11008.1,12657.12 11014.75,12183.33 11025.46,11776.15 11039.97,11432.45 11057.96,11149.07 11079.15,10922.89 11103.26,10750.76 11129.98,10629.55 11159.04,10556.11 11190.13,10527.31 11222.96,10540.02 "/>
    <polygon class="fil0" points="13968.18,9886.69 14144.44,11278.12 14116.73,11154.94 13933.54,9732.72 "/>
    <polygon class="fil0" points="13933.54,9732.72 14116.73,11154.94 14089.02,11278.12 13898.91,9886.69 "/>
    <polygon class="fil0" points="23120.24,13252.32 21466.09,13970.62 21442.31,13980.78 21418.28,13990.58 21394.01,14000 21369.5,14009.06 21344.75,14017.75 21319.77,14026.06 21294.57,14034.01 21269.14,14041.57 21243.49,14048.77 21217.63,14055.58 21191.56,14062.02 21165.28,14068.08 21138.8,14073.76 21112.12,14079.06 21085.26,14083.97 21058.2,14088.49 21030.96,14092.63 21003.54,14096.39 20975.94,14099.75 20948.17,14102.72 20920.23,14105.3 20892.13,14107.49 20863.87,14109.28 20835.46,14110.68 20806.9,14111.68 20778.19,14112.28 20749.34,14112.48 22224.3,13429.65 22260.37,13429.39 22296.25,13428.64 22331.96,13427.39 22367.47,13425.65 22402.79,13423.41 22437.92,13420.67 22472.84,13417.45 22507.55,13413.73 22542.05,13409.53 22576.33,13404.84 22610.38,13399.66 22644.2,13394 22677.79,13387.86 22711.13,13381.25 22744.23,13374.15 22777.08,13366.57 22809.67,13358.53 22841.99,13350.01 22874.05,13341.01 22905.84,13331.55 22937.35,13321.62 22968.57,13311.23 22999.51,13300.37 23030.15,13289.05 23060.49,13277.26 23090.52,13265.02 "/>
    <polygon class="fil0" points="22224.3,13429.65 20749.34,14112.48 20549.96,14112.48 21975.08,13429.65 "/>
   </g>
   <path class="fil0" d="M11005.82 13200.66l-1834.44 0 -463.88 1650.58 -2732.1 0 463.89 -1650.58 -496.09 0 -474.68 1650.58 -2734.01 0 474.67 -1650.58 -1118.65 0 0 -2474.79 1826.7 0 251.2 -869.53 -1117.76 0 0 -2474.79 1826.93 0 474.68 -1639.79c2242.08,0 3252.12,0 5503.12,0l-3.31 -13.39 1911.66 0 163.06 694.58 154.06 -694.58 1752.8 0 154.07 694.58 163.05 -694.58 1864.2 0 -279.39 1131.25c269.12,-155.34 584.53,-243.74 928.33,-243.74 676.25,0 1259.5,351.87 1574.04,887.42l605.14 -1774.93 1740.29 0 546.68 1603.46 0 -659 1586.54 0c100.49,-19.17 206.3,-28.48 316.49,-28.48l806.69 0 0 208.28c266.44,-151 577.51,-236.75 916.12,-236.75 1016.15,0 1822.34,794.5 1822.34,1812.85 0,147.94 -13.77,303.93 -60.73,444.82l-12.49 37.44 103.37 49.1 -194.06 470.43c-146.96,356.27 -419.23,612.92 -746.43,771.21 338.43,226.24 608.41,549.77 757.05,958.53l167.44 460.48 -740.79 347.6c376.06,280.89 616.03,682.77 616.03,1232.01 0,309.3 -79.75,608.38 -245.78,870.35 -372.57,587.85 -1056.88,825.71 -1725.95,825.71 -947.89,0 -1847.93,-534.34 -2148.26,-1457.34l-83.64 -257.04c-297.82,161.96 -654.12,247.62 -1039.72,247.62l-249.22 0 0 1404.35 -1878.54 0 0 -696.27c-383.81,473.4 -983.04,758.68 -1674.38,758.68 -1019.66,0 -1838.95,-620.57 -2062.22,-1549.98l-1250.58 0 0 1487.57 -3308.89 0c0,-1555.65 -794.65,-7814.21 -794.65,-1633.34zm2962.36 -3313.97l-34.64 -153.97 -34.63 153.97 69.27 0zm9919.2 2708.52c-21.72,35.75 -44.74,70.45 -69.01,104.07l118.69 -55.69c-16.93,-15.82 -33.5,-31.95 -49.68,-48.38z"/>
   <g>
    <polygon class="fil1" points="15575.67,6264.54 14972.92,8832.14 14403.4,6264.54 13511.15,6264.54 12941.62,8832.14 12338.88,6264.54 11536.8,6264.54 12410.07,9800.33 13368.76,9800.33 13933.54,7289.68 14498.32,9800.33 15457.02,9800.33 16330.29,6264.54 "/>
    <path id="_1" class="fil1" d="M18950.1 8428.73c0,-716.65 -560.03,-1276.69 -1286.17,-1276.69 -740.38,0 -1309.91,574.28 -1309.91,1347.88 0,749.87 536.3,1357.36 1357.37,1357.36 531.55,0 958.7,-251.53 1115.32,-631.22l-569.53 -270.52c-99.66,175.6 -284.76,284.76 -536.3,284.76 -351.21,0 -583.76,-208.82 -626.48,-536.3l1822.48 0c23.73,-71.19 33.22,-170.86 33.22,-275.27zm-1841.46 -246.8c71.19,-299 275.27,-460.36 555.29,-460.36 294.25,0 503.08,185.09 531.56,460.36l-1086.85 0z"/>
    <path id="_2" class="fil1" d="M21199.73 6264.54l-972.94 0 -1205.49 3535.79 778.35 0 237.3 -721.4 1352.62 0 237.3 721.4 778.35 0 -1205.49 -3535.79zm-953.96 2173.68l469.86 -1433.3 465.11 1433.3 -934.97 0z"/>
    <path id="_3" class="fil1" d="M24033.11 7180.52c-317.99,0 -569.53,94.92 -702.41,417.65l0 -389.17 -664.45 0 0 2591.33 711.9 0 0 -1395.33c0,-384.43 237.31,-607.5 583.77,-607.5l341.71 0 0 -616.98 -270.52 0z"/>
    <path id="_4" class="fil1" d="M27042.1 8428.73c0,-716.65 -560.04,-1276.69 -1286.18,-1276.69 -740.38,0 -1309.91,574.28 -1309.91,1347.88 0,749.87 536.31,1357.36 1357.37,1357.36 531.56,0 958.7,-251.53 1115.32,-631.22l-569.53 -270.52c-99.66,175.6 -284.76,284.76 -536.3,284.76 -351.2,0 -583.76,-208.82 -626.47,-536.3l1822.47 0c23.73,-71.19 33.23,-170.86 33.23,-275.27zm-1841.46 -246.8c71.18,-299 275.26,-460.36 555.28,-460.36 294.25,0 503.08,185.09 531.56,460.36l-1086.84 0z"/>
    <polygon class="fil1" points="12336.64,14297.83 13142.84,14297.83 13142.84,10422.86 12336.64,10422.86 "/>
    <polygon id="_1_0" class="fil1" points="13766.99,14297.83 14573.19,14297.83 14573.19,12810.26 16159.59,12810.26 16159.59,12108.08 14573.19,12108.08 14573.19,11125.04 16419.66,11125.04 16419.66,10422.86 13766.99,10422.86 "/>
    <path id="_2_1" class="fil1" d="M19202.35 10422.86l0 2403c0,483.72 -312.08,806.2 -780.19,806.2 -468.12,0 -780.2,-322.48 -780.2,-806.2l0 -2403 -806.2 0 0 2403c0,868.62 634.56,1534.38 1586.4,1534.38 951.83,0 1586.39,-665.76 1586.39,-1534.38l0 -2403 -806.2 0z"/>
    <path id="_3_2" class="fil1" d="M20632.71 14297.83l806.2 0 0 -1404.35 785.39 0c790.6,0 1373.15,-436.91 1373.15,-1232.71 0,-811.4 -572.14,-1237.91 -1373.15,-1237.91l-1591.59 0 0 3874.97zm806.2 -2106.53l0 -1066.26 790.6 0c338.08,0 561.74,213.25 561.74,535.73 0,317.28 -223.66,530.53 -561.74,530.53l-790.6 0z"/>
    <path id="_4_3" class="fil1" d="M25495.92 14360.24c863.42,0 1435.56,-462.91 1435.56,-1159.89 0,-530.53 -327.68,-879.02 -977.85,-1081.87l-769.79 -239.26c-249.66,-78.02 -384.89,-213.25 -384.89,-395.3 0,-239.25 234.06,-421.3 587.74,-421.3 416.11,0 728.18,228.86 858.22,598.15l676.17 -317.28c-208.05,-572.14 -790.6,-983.05 -1534.39,-983.05 -837.41,0 -1393.94,462.92 -1393.94,1154.69 0,514.93 312.07,889.43 972.64,1097.48l790.6 249.66c228.85,72.82 369.29,182.04 369.29,384.9 0,228.85 -234.06,410.9 -629.36,410.9 -384.9,0 -774.99,-249.66 -962.24,-702.18l-676.17 317.28c213.26,655.37 868.62,1087.07 1638.41,1087.07z"/>
    <path class="fil1" d="M3446.6 14315.07l1618.21 0 474.68 -1650.58 1607.43 0 -463.89 1650.58 1618.21 0 463.89 -1650.58 1704.52 0 0 -1402.46 -1294.57 0 550.19 -1941.86 1704.52 0 0 -1402.45 -1294.57 0 463.89 -1639.79 -1618.22 0 -463.89 1639.79 -1618.21 0 474.68 -1639.79 -1618.22 0 -474.68 1639.79 -1693.73 0 0 1402.45 1294.57 0 -560.98 1941.86 -1693.73 0 0 1402.46 1294.57 0 -474.67 1650.58zm2492.05 -3053.04l560.98 -1941.86 1607.43 0 -550.2 1941.86 -1618.21 0z"/>
   </g>
  </g>
 </g>
</svg>
